<?xml version="1.0" encoding="UTF-8"?>
<svg xmlns="http://www.w3.org/2000/svg" viewBox="0 0 518.44 495.29">
  <defs>
    <style>
      .c {
        fill: #0d0c0c;
        stroke: #fff;
        stroke-miterlimit: 10;
        stroke-width: .5px;
      }

      .d {
        fill: #fff;
        stroke-width: 0px;
      }
    </style>
  </defs>
  <g id="a" data-name="Layer 2">
    <rect class="c" x=".25" y=".25" width="517.94" height="494.78"/>
  </g>
  <g id="b" data-name="Layer 1">
    <g>
      <path class="d" d="M151.03,161.1c-.1.28-.1.44,0,0h0Z"/>
      <path class="d" d="M331.55,115.03c.06.07.1.1.16.16.21.03.39.07.56.13l-.72-.29Z"/>
      <path class="d" d="M352.19,147.55c0,.1.02.17.02.26.07-.04.15,0-.02-.26Z"/>
      <path class="d" d="M256.33,75.93c-.33-.04-.51-.02-.65,0,.19-.01.39-.02.65,0Z"/>
      <path class="d" d="M147.87,228.34s-.01-.09-.02-.16c-.01.13-.02.27-.04.4l.07-.24Z"/>
      <path class="d" d="M147.6,227.62c.03-.82.2.21.25.56.1-.91.04-1.8-.12-2.7-.19.02-.02,1.73-.13,2.14Z"/>
      <path class="d" d="M191.94,340.51l-.28-.25c.11.11.2.18.28.25Z"/>
      <path class="d" d="M258.88,85.73c-.17,0-.36,0-.51,0,.26.03.41.02.51,0Z"/>
      <path class="d" d="M181.23,324.53l-.37-.02c.21.09.31.08.37.02Z"/>
      <path class="d" d="M332.27,115.32l.28.12c-.08-.05-.18-.08-.28-.12Z"/>
      <path class="d" d="M362.87,178.94c-.09.04-.14.13-.19.24,0,.04.02.07.02.1l.17-.33Z"/>
      <path class="d" d="M326.33,341.07s.09,0,.15-.02l.12-.7c-.15.32-.24.55-.27.72Z"/>
      <path class="d" d="M366.08,225.57s.06.15.1.16c.13-.79.22-2.89.29-5.58l-.37-.17v5.59Z"/>
      <path class="d" d="M349.12,273.1c.71-1.45,1.32-2.93,1.99-4.4-.86,3.74-1.85,6.93-2.71,9.84-.96,2.89-1.8,5.51-2.73,8.02-1.83,5.05-3.56,9.83-5.82,16.04l.12-.74c-.45.85-.33,1.71-1.46,4.68-1.11,2.96-3.35,8.12-8.94,17.23l-.07-.03c-.32.67-.18.73-1.01,1.96l2.05-3.09c-.8,2.06-1.33,3.95-2.59,6.61-.36.52-.6.64-.74.64-1.07,2.15-2.1,4.32-3.22,6.46l-1.48,1.72c-.81,2.06.61,1.7-2.77,6.58,1.71-1.6-1.05,2.78-.37,2.32-.22.22-.68.74-1.06,1.15-1.65,3.1-4.86,8.91-5.39,10.51,0,0,2.1-2.76,4.48-5.9,1.19-1.57,2.46-3.24,3.57-4.7,1.1-1.47,2.07-2.72,2.69-3.44-2.59,4.26-.56,1.19.13.45v-.38c1.61-2.52,2-2.32,2.82-3.57-.03-.02-.09,0-.15.02l-.04.2c-.14.09-.15-.01-.11-.18-.1-.01-.1-.17.3-.88l-.03.16c.53-1.13,1.62-3,2.08-3.81l.35.16c.17-1.16,2.17-4.32,4.19-7.59,2.05-3.25,4.14-6.61,4.78-7.96.87-1.25,1.54-2.79,2.21-4.44.66-1.65,1.38-3.37,2.21-5.05,2.45-5.45,1.69-2.53,3.16-5.17,1.62-3.4-.69.54-.16-.87l2.17-3.98c-.93,2.44-.19,1.21.12.82,1.51-3.59,4.3-9.12,3.96-10.52,2.1-4.84,2.37-4.77,3.1-6.91-.37.68-.95,2.07-1.1,2.03.97-1.9.23-.99-.1-.19.32-1.59,2.01-5.43,3.33-9.07,1.41-3.61,2.48-7.02,2.17-7.45l.15.04c-.41-.88-1.3.12-1.05-2.13.22-.46.44-.92.64-1.38l.26-2.26c.54-1.42.53-.66.61-.65.14-.91.34-1.9.58-2.94.23-1.04.47-2.14.72-3.26.27-1.12.54-2.26.81-3.4.26-1.14.48-2.27.69-3.37-.83,1.45-1.63,2.9-2.52,4.32,1.13-3.57,2.99-10.14,2.51-10.97l.87-2.16c.55-1.83.76-3.09.87-3.98.1-.89.08-1.41.01-1.8-.13-.77-.42-.98-.1-2.46.32-1.24.59-2.48.89-3.73-.1,1.26-.16,2.51-.28,3.77.58-3.74.92-5.24,1.46-8.25,0,0,0-.03-.02-.03-.03.21-.07.34-.1.37v-.53c-.29-.47-.44-2.46-.34-5.12.07-3.8-.32-6.74-.03-12.83l-.71-1.47-.04-4.56.5-.05c.52,4.45,1.03,12.85,1,18.6l.23.1c-.03-3.41-.22-7.29-.34-9.54.05-1.1.43-3.95.87-1.92l-.6-2.08c-.23-2.85-.47-4.98-.63-6.78-.18-1.79-.41-3.23-.57-4.69-.17-1.46-.3-2.95-.58-4.79-.13-.93-.27-1.95-.43-3.11-.08-.58-.16-1.2-.25-1.85-.12-.65-.24-1.34-.37-2.08v1.07c-.69-2.28-1.37-4.55-1.12-5.29-.41-1.75-.91-3.5-1.33-5.23-.22-.86-.42-1.73-.65-2.57-.24-.84-.47-1.66-.71-2.47-.44-1.62-.86-3.17-1.24-4.6-.42-1.42-.78-2.72-1.06-3.88l-.93-.74c-.48-1.44-.64-3.89-1.7-4.24l-1.58-2.88c-.11-.24-.21-.47-.31-.69-.05-.11-.1-.21-.15-.32-.05-.11-.11-.22-.11-.23-.09-.12-.17-.28-.26-.53-.19-.51-.33-1.23-.41-2.48h0s0-.01,0-.01c-.01-.16-.02-.33-.03-.49-.02,0-.03.02-.04.04-.22-1.33-.52-2.21-.73-2.63-.19-.42-.29-.44-.37-.47-.04-.02-.08-.04-.15-.13-.04-.05-.08-.11-.13-.19-.03-.05-.08-.12-.13-.2-.2-.33-.51-.98-1.06-2.22-.44-1.74-1.58-1.34-2.74-3.69l-.62-2.72c-1.06-2.17-1.89-3.32-2.96-4.62-1.06-1.31-2.33-2.79-4.44-5.55-1.79-2.82-2.3-4.53-.38-3.2-2.54-1.9-1.27-.78-4.18-3.62-.18-.67.17-.41.97.09-2.13-2.95-1.69-1.49-3.53-3.49-.99-.16-2.3-.14-2.93-.74l.59.88c-2.21-1.81-4.51-3.85-6.77-6.26l.3-.14c-.9-.74-1.81-1.48-2.74-2.18l.08-.44c-.65-.52-1.3-1.05-1.96-1.55l-2.29-1.76.77.75c-.18-.14-.41-.31-.68-.52-.28-.22-.68-.35-1.07-.55-.5-.24-1.08-.51-1.7-.8-.61-.29-1.24-.61-1.83-.92-.29-.16-.58-.32-.85-.47l-.2-.11-.06-.05-.12-.1.14-.17-.09-.09-.09-.16-.04-.07s-.02-.04-.1-.13c-.24-.27-.48-.54-.72-.81l-.36-.39-.49-.51c-.43-.43-.85-.86-1.28-1.29l-1.22-.44-.51-.19-.23-.1c-.3-.14-.61-.28-.93-.47-.63-.36-1.3-.82-2.04-1.42-.37-.3-.75-.63-1.16-.99l-.5-.47c-.17-.17-.34-.33-.56-.43-.31-.18-.63-.36-.94-.55-1.06-.61-2.16-1.26-3.31-1.97l1.05.14c-1.91-1.72-.93.2-3.36-1.56l.14-.54c-2.69-.62-2.95-1.73-4.46-2.83l.43,1.03c-1-.55-1.95-1.21-3-1.68-3.38-1.72-1.78-1.75-1.11-1.86l-2.62-.52-.23-.78c-2.01-.1-1.73-.84-5.04-1.56-.19-.31.66-.17-.39-.63l-2.76-.46c-.92-.12-1.86-.18-2.79-.27l1.66.22c.56.06,1.11.15,1.65.28l-.65.75c-3.49-.23-4.48-1.25-6.92-1.61l1.7.14c-.99-.18-1.72-.38-2.33-.49-.61-.11-1.07-.22-1.47-.34-.81-.23-1.4-.48-2.5-.77.67.28,1.68.71.07.56-1.18-.15-.59-.42-1.69-.71-.35.49-3.23.58-5.79.08.04-.08.1-.16.27-.2-.67.04-1.02.17-2.16-.07l.72-.62c-.76.13-1.51.34-2.26.56-1.48-.19-3.65.29-3.45-.17l.84-.13-2.82-.05c-.94.01-1.88.1-2.81.15l-2.82.17c-.94.05-1.88.11-2.81.27l-.23-.51c-1,.91-6.15.66-5.61,1.54-2.18,0-8.05,2.26-7.1.98-1.78.54-3.33,1.09-4.8,1.64-.73.29-1.45.52-2.13.85-.68.33-1.36.65-2.05.98-1.38.66-2.82,1.29-4.41,2.01-1.56.79-3.3,1.61-5.37,2.5-.84.13-1.89.59-3.12,1.2-1.23.6-2.62,1.36-4.06,2.19-1.42.86-2.83,1.89-4.23,2.83-1.39.96-2.75,1.87-3.86,2.8-4.36,3.62-7.63,6.92-10.79,10.34-1.51,1.78-3.09,3.49-4.62,5.43-.74.98-1.51,1.99-2.3,3.04-.78,1.06-1.66,2.11-2.41,3.32-1.24,1.22-2.45,2.74-3.65,4.41-1.12,1.72-2.16,3.62-3.21,5.52-.55.94-1,1.94-1.46,2.92-.47.97-.94,1.94-1.4,2.89-.99,1.86-1.77,3.72-2.7,5.32l-.37,2.04c-.71,1.03-1.25,2.29-1.82,3.68-.56,1.38-1.12,2.89-1.67,4.46-.95,3.19-2.09,6.56-3.26,9.78-.22,1.67-.38,2.54-.46,2.92.1-.29.31-.73.66-.79-.78,1.81-1.24,5.73-1.82,5.32l.04-.5c-.28-.21-.52,1.26-.81,3.02-.3,1.76-.49,3.84-.96,4.87l.86-1.06-.72,3.6.03-.99c-.45,7.99-1.1,13.7-1.54,19.31-.1,1.4-.21,2.8-.31,4.22-.06,1.42-.09,2.87-.11,4.37-.01,3,0,6.24.53,9.94-.8-1.95.49,2.91-.31,3.14-.94,3.81.65,6.93,1.14,9.95.04,0,.09.03.16.2.12,1.78.19,3.57.43,5.34-1.42-3.06,1.33,3.73.1.91.29,3.48.55,7.25,1.27,11.12.33,1.94.67,3.92,1.02,5.93.36,2,.88,4.01,1.33,6.04.49,2.03.89,4.09,1.46,6.12.56,2.03,1.13,4.06,1.69,6.09.28,1.01.56,2.03.83,3.03.32,1,.63,1.99.94,2.98.61,1.99,1.21,3.95,1.8,5.89l.03-.76c.56,1.98,1.5,4.08,2.26,6.13.78,2.03,1.46,3.97,1.82,5.5.83,3.03,3.27,6.02,3.78,7.1.44.74.78,1.49,1.07,2.18.3.68.53,1.3.68,1.8.29.98.28,1.44-.02.77,1.72,3.23,3.9,5.95,6.01,10.54.02.48.48,1.46,1.15,2.66.68,1.2,1.53,2.64,2.48,3.96,1.84,2.68,3.57,5.19,3.2,5.52h.1c.35.74.71,1.46,1.1,2.16.42.68.85,1.35,1.29,2.01.89,1.32,1.82,2.61,2.77,3.9,1.83,2.63,3.97,5.11,5.78,8.11,0,0-.14-.06-.33-.21l2.7,2.4c.92.78,1.88,1.52,2.81,2.28l5.6,4.48-.06-5.15-2.77-5.42-2.49-5.54-2.44-3.16-2.29-3.28-2.28-3.28-1.14-1.64-1.07-1.69-4.25-6.79-3.93-6.99c-.98-1.9-1.77-3.89-2.63-5.84-.83-1.97-1.72-3.9-2.51-5.89l-2.26-5.98c-.37-1-.76-1.99-1.12-2.99l-.99-3.04c-.89-2.43-1.88-4.82-2.69-7.28l-2.41-7.38c-.78-2.47-1.41-4.98-2.12-7.47-.33-1.25-.72-2.49-1.01-3.75l-.87-3.79c-1.26-5.03-2.08-10.14-3.02-15.24l-1.04-7.7-.26-1.92c-.07-.64-.12-1.29-.18-1.93l-.34-3.87-1.09-4.38c.21-3.08.25-6.35.18-9.74.1-3.4.09-6.92.12-10.47.11-7.11.65-14.28,2.01-20.68l-.58-.36c.57-3.64.91-3.33,1.17-4.21,1.48-8.42,3.62-16.76,6.59-24.76,2.96-7.99,6.77-15.63,11.41-22.57,4.64-6.94,10.08-13.21,16.16-18.49,6.08-5.26,12.72-9.55,19.52-12.79,1.4-.45,4-1.78,6.69-2.72,1.33-.49,2.61-1.07,3.76-1.37,1.14-.31,2.09-.55,2.66-.61,1.13-.43,2.25-.97,3.43-1.31,1.18-.34,2.37-.69,3.56-1.03l1.8-.5,1.84-.34,3.69-.66c1.23-.22,2.49-.25,3.73-.37,1.25-.08,2.49-.26,3.73-.25,1.24,0,2.48.02,3.71.03.62,0,1.23.01,1.84.02.61.06,1.22.11,1.82.17l-.37.04,4.57.27c.19.07.2.14.05.18,1.29.06,2.76.25,4.33.48.78.13,1.61.22,2.42.43.81.22,1.64.45,2.48.68,1.67.47,3.39.92,4.99,1.61,1.61.65,3.21,1.2,4.65,1.84l-.36-.08c2.14.97,4.32,1.81,6.41,2.83,1.03.54,2.06,1.09,3.09,1.63,1.02.55,2.08,1.03,3.04,1.69.98.62,1.96,1.23,2.94,1.84l1.4.87c.17.1.13.07.16.11l.55.53c.97.93,2.09,1.96,3.45,2.91.68.47,1.41.93,2.19,1.32.19.1.39.19.59.29l.3.14.1.04c.14.06.16.06.19.07l.09.08.62.61c.71.7,1.43,1.41,2.14,2.11,1.77.87,3.54,1.74,5.31,2.6l.94.46s.05.02.07.04l.23.18,1.9,1.5c2.5,2.04,4.92,4.15,7.25,6.35,4.64,4.42,8.91,9.21,12.68,14.38,1.91,2.57,3.66,5.27,5.31,8.03.84,1.38,1.61,2.79,2.38,4.21.38.71.74,1.44,1.11,2.15l.5.99s.09.24.16.46c.14.48.27,1.2.44,2.07.17.87.37,1.91.8,3.18.12.33.24.66.4.99l.3.68.49,1.12.97,2.25.97,2.25c.31.76.58,1.54.87,2.32.56,1.55,1.16,3.1,1.69,4.67,2.47,8.37,4.9,17.47,6.41,27.12,1.52,9.63,2.12,19.81,1.25,29.85-.08.46-.21,1.49-.36,2.96-.17,1.47-.26,3.37-.52,5.55-.48,4.37-1.1,9.89-2.07,15.38-.88,5.5-2.07,10.95-3.04,15.26-1.03,4.3-1.78,7.46-1.99,8.35Z"/>
      <path class="d" d="M327.22,329.84l.07-.14c-.24-.11-.26.14-.07.14Z"/>
      <path class="d" d="M362.54,250.74c-.02.09-.04.18-.05.27l.55-.97-.49.69Z"/>
      <path class="d" d="M346.94,304.61c1.02-2.31,1-2.44.77-2.15-.35.84-.63,1.59-.77,2.15Z"/>
      <path class="d" d="M318.07,347.87c-.67,1.12-.28.77.25.19.63-1.17,1.07-1.98,1.07-1.98-.41.61-.89,1.17-1.32,1.79Z"/>
      <path class="d" d="M323.81,344.98v.46c.32-.7.23-.71,0-.46Z"/>
    </g>
    <g>
      <path class="d" d="M215.38,378.84c-.05-.04-.1,0,0,0h0Z"/>
      <path class="d" d="M264.3,383.17s.03,0,.05,0c.02-.13.05-.24.07-.32l-.12.33Z"/>
      <path class="d" d="M272.27,383.07s.03.02.05.03c-.01-.07-.02-.15-.05-.03Z"/>
      <path class="d" d="M246,384.53c-.07-.01-.11.01-.14.05.04-.02.08-.05.14-.05Z"/>
      <path class="d" d="M202.68,374.17s.02,0,.03,0c0-.03,0-.06,0-.1l-.02.09Z"/>
      <path class="d" d="M202.91,374.08c.05.16-.14.12-.2.1,0,.23.13.34.31.36.11-.16-.15-.3-.11-.46Z"/>
      <path class="d" d="M209.57,360.41l-.04.1s.03-.07.04-.1Z"/>
      <path class="d" d="M246.28,394.11s-.09.02-.13.04c.07,0,.1,0,.13-.04Z"/>
      <path class="d" d="M205.92,361.91l.11.29c-.03-.13-.07-.22-.11-.29Z"/>
      <path class="d" d="M264.42,382.84l.05-.12s-.03.07-.05.12Z"/>
      <path class="d" d="M279.56,382.03c.02.09.05.16.08.22,0,0,.02,0,.02,0l-.11-.22Z"/>
      <path class="d" d="M308.9,368.05s-.06.05-.09.08l.27.02c-.06-.06-.12-.1-.18-.1Z"/>
      <path class="d" d="M289.74,380.96s.01-.08,0-.11c-.2-.05-.64.05-1.2.23l.06.38,1.14-.49Z"/>
      <path class="d" d="M303.58,385.71c-.49-.07-.97-.17-1.44-.26,1.77-.85,3.22-1.39,4.63-2.09,1.39-.7,2.8-1.57,4.15-3.38l-.06.29c.23-.12.22-.45.48-.99.13-.27.31-.64.62-1.08.15-.23.32-.49.53-.78.21-.29.42-.62.74-1.09.61-1.03,1.38-2.39,1.83-4.47h.08c-.03-.32-.15-.31,0-.93-.11.51-.27,1.04-.43,1.56-.17-.98-.56-1.66-.83-2.74.03-.24.17-.36.28-.41-.24-.9-.6-1.75-1.06-2.57.03-.33.02-.67,0-1.02-.36-.32-.68-.25-1.05-.37-.4-.12-.67-.43-1.41-1.51.1.59-.21.45-.52.24-.34-.2-.74-.46-.72-.22-.05-.14-.2-.42-.34-.66-.36-.17-.8-.39-1.3-.55-.53-.13-1.07-.29-1.62-.28-1.1-.08-1.99.23-2.31.44,0,0,.39.04.95.17.28.05.61.16.95.31.34.13.69.31,1.01.54,1.35.89,1.95,2.29,1.99,2.9-.86-1.1-.3-.18-.3.16l.19-.06c.37.73,0,.98.07,1.34.03-.02.06-.05.1-.09h-.07c.05-.08.11-.09.16-.08.08-.06.16-.07.24.11h-.06c.24.21.39.73.45.95l-.35.15c.43.09.51,1.07.22,1.95-.27.9-.82,1.57-.91,1.83-.31.25-.37.56-.44.93-.08.26-.18.61-.46.81-.78.87-.77.14-1.38.34-.62.34.42.2.26.42-.32.09-.65.15-.97.21.32-.36-.03-.35-.18-.4-.55.43-1.85.46-1.66,1.22-1.06.2-1.2-.09-1.61.08.19.06.51.04.59.17-.52-.11-.14.16.05.15-.21.29-1.11.36-1.95.4-.84.04-1.61.1-1.54.51l-.05-.14c.07.64.52,1.11.18,1.6l-.41-.15-.39.41c-.39-.08-.29-.29-.31-.36-.68.53-1.88.57-2.84.81l1.54,1.27c-.93-.1-2.61-.37-2.6.2l-.65-.38c-1.93-.57-.99.78-1.73.65l-.98-.36.81-.22c-.89-.07-1.27-.17-2.02-.37,0,0,0,.01,0,.02.05.01.09.03.1.07l-.11.05c-.01.32-.37.65-.95.79-.82.16-1.35.74-2.8.42l-.17.69-1.06-.13-.12-.49c.95-.22,2.71-.78,3.9-1.17l-.04-.23c-.71.22-1.48.62-1.97.69-.26-.04-.98-.41-.63-.84l-.32.59c-1.2.32-1.8.48-2.43.58-.63.1-1.29.11-2.62.07l.27.2c-.47.24-.94.48-1.16.11-1.54.2-3.16.25-4.25-.26l-.12.62c-.33.02-.95-.8-.98.05l-.65.36c-.45.02-.67.4-1.22.14h0s0,0,0,0c-.03-.02-.07-.04-.1-.05,0,.02,0,.03.01.05-1.03-.11.08.53-1.11.36-.42-.36-.31.81-.89.73l-.67-.78c-1.07-.38-1.14.49-2.62.65-.74-.23-1.14-.91-.74-1.6-.56.85-.24.54-1.05,1-.16-.31-.07-.38.09-.69-.78-.3-.44.33-1.01.35-.12.61-.23,1.59-.42,1.64l.24.17c-.58.36-1.25.56-1.98.3v-.31s-.74.2-.74.2l-.07-.39-1.07.19.15.1c-.25.07-1.08.26-1.56.05v-.22c-1.35-.64-2.43.26-4,.37l.2-.45c-.54-.43-.14.68-.78.48l-.03-.54c-.56.73-.73-.15-1.11-.43l.18.71-.73-.16c-.8-.25-.48-.91-.36-1.28l-.55.55-.1-.63c-.41.72-.39-.13-1.09.25-.05-.24.13-.37-.11-.48l-1.17.86.7-.38-.11.91c-.75.68-.98-.12-1.5.13l.37-.26c-.85.21-.88-.21-1.34-.43.14.18.35.45,0,.54-.25.03-.12-.33-.35-.45-.09.61-.71.89-1.24.57.01-.09.03-.17.07-.22-.15.09-.23.24-.46.08l.18-.67-.51.61c-.3-.2-.79.26-.72-.2l.19-.12c-.78-.11-1.57-.19-2.34-.33v-.54c-.28.72-1.23-.42-1.24.52-.39-.55-1.78.17-1.41-.84-1.52-.25-2.48.7-4.28-.1-.54-.98-2.38-.97-3.56-1.24-2.37-.07-3.93-.02-6.36-.23-1.13-1.55-3.62-.43-4.98-1.47l-.54.36c-.79-1.05-2.58-.56-3.76-1.69-.4.11-.61.12-.69.12.06.04.13.16.07.47-.34-.32-1.23-.31-.98-.89l.12-.03c.25-.58-1.28-.12-1.56-.79l.03.72-.71-.36.24-.06c-1.83.16-3.06-.38-4.04-.95-1.01-.58-1.9-1.16-3.46-1.21.67-.47-.68.08-.31-.65-.08-1.2-1.16-.45-1.77-.56-.02.03-.06.07-.12.1-.25-.2-.44-.43-.67-.64.54-.22.28-.16,0-.09-.27.06-.56.13-.1-.03-.6-1.05-1.28-1.87-1.62-2.75-.12-.22-.15-.46-.24-.69-.04-.25-.06-.5-.11-.75l.06-.71c.09-.22.15-.45.25-.66h-.27c.12-.23.17-.52.26-.8.15-.27.3-.51.59-.58.32-.06.33-.35.29-.67-.06-.32-.08-.65-.04-.75.07-.76,1.11-.49.89-.34.2-.26.25-.66.4-1.05.17-.37.42-.73.92-.87.4.26.81-.29,1.26-.8.46-.49.91-.98,1.16-.55l-.03-.08c1.46,0,2.1-1.59,3.7-1.58,0,0,0,.08-.02.16.54-1.27,1.17-2.54,1.87-3.8-.62-.93-1.25-1.85-1.91-2.76-1.21-.51-2.46-.98-3.76-1.38-2.53,1.27-5.01,2.73-7.35,4.72-2.14,1.19-4.38,2.77-6.25,5.35-.49.8-.83,1.79-1.17,2.71-.14.49-.25,1-.36,1.5-.05.25-.11.5-.15.76l-.06.77c-.03.51-.07,1.03-.06,1.54.04.5.09,1,.14,1.5.04.5.14.99.27,1.48.12.49.25.98.43,1.45.68,1.91,1.77,3.59,2.97,4.94,1.21,1.36,2.53,2.4,3.84,3.26.51.07,1.01.07,1.49.1,1.17,1.47,2.97,2.3,4.74,2.9,1.82.64,3.47,1,4.86,1.95l.26-.57c.87.25.69.6.87.78,8.07,2.49,16.66,3.51,24,5.3.66.55,2.9.55,3.42,1.04,1.27-.25,2.54-.31,3.8-.26,1.26.02,2.52.1,3.74.23l-.1.06,1.16-.05c.05.05.05.13,0,.18,1.33-.44,3.35.12,4.95.39l-.09.07c2.33.11,4.63,0,6.89-.14,2.27-.09,4.5-.42,6.73-.63,2.23-.22,4.44-.59,6.68-.8,2.24-.27,4.49-.55,6.82-.68,2.2.07,4.49-.42,6.82-1.08,2.32-.7,4.71-1.34,7.2-1.67.26.09,1.05-.05,2.11-.31.53-.13,1.12-.3,1.74-.48.61-.22,1.26-.45,1.9-.68,1.29-.47,2.56-.97,3.56-1.39,1.01-.43,1.8-.84,2-1Z"/>
      <path class="d" d="M314.17,369.35l.02.06c.26-.06.14-.13-.02-.06Z"/>
      <polygon class="d" points="295.33 380.07 295.39 380.05 295.05 379.77 295.33 380.07"/>
      <path class="d" d="M305.54,375.02c-.36.24-.33.3-.22.33.12-.1.21-.21.22-.33Z"/>
      <path class="d" d="M309.25,362.99c-.54-.32-.4-.06-.18.26.5.29.83.53.83.53-.22-.24-.4-.54-.65-.78Z"/>
      <path class="d" d="M308.45,366.94l-.23.08c.18.1.23.04.23-.08Z"/>
    </g>
    <g>
      <path class="d" d="M203.09,263.52c-.09-.06-.15-.06,0,0h0Z"/>
      <path class="d" d="M284.06,265.16s.05-.02.08-.03c.03-.11.05-.22.09-.29l-.17.32Z"/>
      <path class="d" d="M297.13,261.22s.06,0,.09,0c-.03-.05-.04-.12-.09,0Z"/>
      <path class="d" d="M254.02,273.21c-.12,0-.18.03-.23.07.07-.03.13-.05.23-.07Z"/>
      <path class="d" d="M182.29,250.35s.03.02.05.03c-.02-.05-.05-.09-.07-.14l.02.11Z"/>
      <path class="d" d="M182.61,250.39c.18.25-.16.06-.27-.01.16.32.41.54.7.7.1-.12-.4-.51-.44-.69Z"/>
      <path class="d" d="M153.72,215.44l.12.09s-.08-.07-.12-.09Z"/>
      <path class="d" d="M256.01,280.71c-.07.02-.14.04-.21.06.11,0,.17-.03.21-.06Z"/>
      <path class="d" d="M157.35,221.67l.25-.07c-.12,0-.2.02-.25.07Z"/>
      <path class="d" d="M284.22,264.84l.07-.12s-.05.07-.07.12Z"/>
      <path class="d" d="M308.11,255.88c.04.06.1.1.15.12.01,0,.02-.01.03-.02l-.19-.11Z"/>
      <path class="d" d="M358.12,215.9s-.06-.03-.1-.03l-.02.31c.07-.12.11-.21.12-.28Z"/>
      <path class="d" d="M322.45,246.42s0-.08-.01-.1c-.28.13-.88.63-1.63,1.3l.15.27,1.5-1.47Z"/>
      <path class="d" d="M342.29,239.35l-1.75.96c1.02-1.17,1.89-2.13,2.69-2.92.41-.41.74-.72,1.17-1.12.41-.38.81-.75,1.2-1.11,1.56-1.45,3.03-2.87,4.68-4.94l-.11.3c.32-.23.31-.65,1.09-1.65.78-1.01,2.37-2.54,5.8-5.25l.05.04c.19-.23.09-.31.6-.66l-1.25.89c.46-.77.74-1.55,1.46-2.49.21-.15.36-.14.45-.1.59-.77,1.16-1.55,1.73-2.33l.86-.47c.37-.85-.52-1,1.24-2.66-.97.4.39-1.18-.02-1.1.13-.06.37-.22.57-.35.74-1.21,2.11-3.5,2.23-4.19,0,0-1.03.95-2.22,2.04-1.19,1.07-2.53,2.23-3.19,2.64,1.23-1.51.23-.46-.14-.26l.04.19c-.81.85-1.1.63-1.53,1.03.02.02.06.03.1.03v-.09c.09,0,.11.05.1.12.07.04.09.12-.12.35v-.07c-.25.42-.8,1.04-1.05,1.31l-.24-.18c-.06,1.07-4.33,3.89-5.11,4.7-1.04.61-1.65,1.98-2.76,2.9-1.64,1.6-1.1.53-2.08,1.18-1.13.9.46.04.07.46l-1.49.94c.67-.74.16-.48-.05-.43-1.06,1.03-3.11,2.27-3.01,3.02-1.63,1.19-1.8,1.02-2.44,1.59.28-.12.76-.44.85-.36-.76.37-.23.31.05.13-.32.49-1.73,1.47-2.93,2.41-1.2.93-2.23,1.77-2.08,2.09l-.09-.08c.16.54.82.56.43,1.35l-.55.25-.44.74c-.51.27-.41-.01-.45-.06-.81,1.11-2.39,2.16-3.68,2.86.68.11,1.41.15,2.14.14-.65.32-1.56.66-2.34.93-.78.27-1.46.57-1.49.84-.33.01-.67.03-1.03.06-1.61.48-2.05,1.1-2.14,1.37-.1.31.01.54-.51.82l-1.41.57,1.08-.93c-1.24.75-1.78,1-2.84,1.5v.02c.07-.04.12-.05.15-.04l-.14.14c.03.3-.42.92-1.19,1.56-1.13.86-1.76,1.86-3.85,2.85l-.13.74-1.53.79-.24-.32c1.34-.97,3.69-3.03,5.3-4.43l-.09-.17c-.97.82-1.97,1.86-2.65,2.35-.37.19-1.44.51-1.02-.17l-.37.79c-1.64,1.31-2.48,1.93-3.38,2.53-.9.58-1.85,1.14-3.78,2.12l.42-.04c-.65.57-1.31,1.12-1.69.97-2.22,1.32-4.69,2.34-6.38,2.6l-.12.58c-.49.22-1.52-.11-1.48.6-.31.22-.64.44-.97.66-.7.26-1.02.69-1.92.76h0s0,0,0,0c-.05,0-.11,0-.17,0,0,.01.01.02.02.03-1.66.44.18.39-1.75.85-.7-.09-.44.81-1.38,1.05l-1.14-.31c-1.77.22-1.82.97-4.23,1.79-1.24.16-1.98-.21-1.38-.95-.86.94-.35.55-1.66,1.29-.3-.17-.16-.27.08-.6-1.34.12-.7.47-1.65.76-.13.55-.21,1.38-.51,1.51l.41.03c-.93.57-1.99,1.04-3.24,1.18l-.03-.25-1.21.52-.17-.27-1.76.67h.27c-.41.17-1.76.72-2.6.83l-.03-.17c-2.47.25-3.85,1.48-6.4,2.18l.24-.43c-.94-.12-.1.6-1.17.67l-.15-.41c-.78.77-1.2.15-1.87.07l.41.49-1.21.13c-1.35.06-.93-.56-.8-.88l-.81.6-.26-.46c-.56.68-.66.02-1.76.5-.12-.17.15-.32-.25-.35-.6.32-1.19.65-1.8.96l1.11-.46-.04.75c-1.13.71-1.64.14-2.48.43l.57-.28c-1.39.33-1.5.04-2.32-.05.26.11.66.28.09.43-.42.08-.25-.24-.66-.28-.05.5-1.05.84-2,.68,0-.07.02-.14.08-.19-.23.1-.34.23-.77.14l.21-.56-.76.57c-.54-.11-1.29.33-1.24-.04l.3-.13c-1.35.03-2.69.06-4.05.06l-.07-.43c-.4.62-2.17-.16-2.03.58-.75-.38-2.94.3-2.49-.54-2.57-.11-4.02.65-7.13-.03-1.05-.8-4.1-.93-6.07-1.36-3.93-.37-6.47-.7-10.44-1.6-2.04-1.64-5.92-1.54-8.18-3.04l-.82.1c-1.38-1.24-4.15-1.58-6.09-3.23-.62-.11-.92-.2-1.06-.25.09.07.21.21.15.46-.56-.45-1.92-.92-1.6-1.32l.18.04c.33-.4-2-.77-2.46-1.55l.11.68-1.11-.74.36.09c-2.82-.89-4.54-2.15-6.18-3.39-1.65-1.25-3.19-2.53-5.7-3.73.93-.03-1.04-.4-.7-.97-.58-1.48-2.1-1.43-3.1-2.01-.02.02-.05.04-.14.04-.48-.45-.98-.88-1.45-1.34,1.41.18-1.5-.44-.24-.24-3.46-3.82-8.59-8.2-12.19-13.02v.34c-.94-1.19-2.32-2.51-2.76-3.63-.45-1.11-1.95-1.69-2.25-2.03-1.05-.81-1.14-2.17-.85-1.71-.88-1.03-2.22-1.66-3.03-3.4.1-.46-.75-1.44-1.56-2.36-.79-.93-1.54-1.82-1.22-2.05l-.07.02c-.84-2.33-2.82-3.8-3.72-6.32,0,0,.07.01.16.06-1.57-1.13-3.13-2.3-4.69-3.49l-1.5,2.6c.15,1.72.35,3.43.54,5.16,2.32,3.63,4.76,7.2,7.34,10.67,1.73,3,3.56,5.95,5.51,8.85,5.34,6.58,11.28,12.73,17.94,18.11.59.25,1.19.47,1.79.7,1.63,1.97,3.98,3.65,6.43,5.24,2.46,1.57,5.02,3.05,7.2,4.7l.35-.38c1.34.72,1.1.95,1.39,1.21,12.56,6.76,26.89,10.45,39.62,12.11,1.21.47,4.99.46,5.96.82,2.09-.26,4.28-.44,6.36-.6,2.09-.15,4.19-.24,6.24-.36l-.15.07,1.92-.25c.09.03.1.09.04.14,2.14-.62,5.62-.58,8.35-.87l-.15.08c3.93-.62,7.8-1.59,11.52-2.9,3.42-1.22,6.86-2.39,10.33-3.57,3.47-1.19,6.97-2.39,10.51-3.69,1.77-.64,3.55-1.32,5.34-2.03,1.79-.7,3.66-1.5,5.46-2.35,3.49-1.37,6.87-3.56,10.13-6.02,3.26-2.46,6.46-5.15,9.75-7.6.37-.15,1.41-.97,2.78-2.12.17-.14.35-.29.53-.45.11-.09.21-.18.33-.27.2-.16.42-.31.73-.49.58-.36,1.7-.89,2.91-1.67,2.46-1.6,4.19-3.4,5.47-4.76,1.27-1.38,2.08-2.35,2.29-2.65Z"/>
      <path class="d" d="M358.36,221.31l-.04.05c.17.13.16,0,.04-.05Z"/>
      <polygon class="d" points="330.88 241.05 330.96 241 330.51 240.93 330.88 241.05"/>
      <path class="d" d="M345.84,226.39c-.71.64-.71.71-.55.67.25-.24.45-.47.55-.67Z"/>
      <path class="d" d="M362.94,214.55c.31-.42.09-.33-.2-.16-.28.45-.48.77-.48.77.21-.21.46-.39.68-.61Z"/>
      <path class="d" d="M359.41,214.62l-.05-.23c-.13.27-.08.3.05.23Z"/>
    </g>
    <g>
      <path class="d" d="M308.31,165c.09.07.15.06,0,0h0Z"/>
      <path class="d" d="M227.56,161.15s-.05.02-.08.03c-.02.12-.05.22-.07.3l.15-.33Z"/>
      <path class="d" d="M214.85,165.72s-.06,0-.09.01c.03.05.04.11.09-.01Z"/>
      <path class="d" d="M257.68,153.96c.12,0,.18-.03.22-.07-.07.03-.13.05-.22.07Z"/>
      <path class="d" d="M328.95,178.63s-.03-.02-.05-.03c.02.05.05.09.07.14l-.02-.11Z"/>
      <path class="d" d="M328.63,178.58c-.18-.25.16-.05.27.01-.16-.32-.41-.54-.71-.71-.1.12.4.51.44.7Z"/>
      <path class="d" d="M357.8,213.32l-.12-.09s.08.07.12.09Z"/>
      <path class="d" d="M255.76,146.44c.07-.02.15-.04.21-.05-.11,0-.17.03-.21.05Z"/>
      <path class="d" d="M354.23,207.09l-.25.07c.12,0,.2-.02.25-.07Z"/>
      <path class="d" d="M227.41,161.48l-.06.12s.04-.07.06-.12Z"/>
      <path class="d" d="M203.72,171.48c-.04-.06-.1-.1-.15-.13-.01,0-.02.01-.03.02l.18.11Z"/>
      <path class="d" d="M153.56,211.25s.06.03.1.03l.02-.31c-.07.12-.11.21-.12.28Z"/>
      <path class="d" d="M188.76,180.26s-.01.08,0,.1c.29-.11.93-.57,1.72-1.17l-.13-.28-1.6,1.35Z"/>
      <path class="d" d="M169.41,187.47l1.82-.88c-4.29,4.43-6.74,6.08-9.98,10.28l.1-.3c-.61.51.02,1.61-6.74,6.99l-.05-.04c-.18.23-.09.31-.59.66l1.23-.89c-.45.77-.71,1.55-1.43,2.48-.21.15-.36.14-.45.1l-1.72,2.3-.85.45c-.37.83.52,1.01-1.27,2.59.98-.36-.42,1.14,0,1.09-.13.05-.37.2-.58.32-.77,1.16-2.2,3.36-2.35,4.05,0,0,4.2-3.65,5.56-4.42-1.29,1.45-.26.45.13.26l-.03-.19c.82-.83,1.11-.61,1.55-1-.02-.02-.06-.03-.1-.04v.09c-.09,0-.11-.05-.1-.12-.07-.04-.09-.12.13-.35v.07c.25-.42.81-1.04,1.06-1.3l.24.18c.08-1.05,4.31-3.91,5.09-4.74,1.04-.62,1.61-2.01,2.71-2.95,1.59-1.64,1.09-.55,2.06-1.22,1.11-.92-.46-.03-.08-.46l1.47-.97c-.65.76-.15.48.06.43,1.05-1.05,3.05-2.34,2.94-3.08,1.61-1.21,1.78-1.04,2.4-1.62-.28.12-.75.46-.84.37.75-.38.22-.32-.05-.13.33-.53,1.66-1.43,2.86-2.29,1.21-.84,2.3-1.62,2.17-1.95l.08.09c-.13-.56-.79-.6-.36-1.38l.57-.22.49-.73c.53-.27.41.02.45.07.87-1.11,2.52-2.18,3.84-3.23l-2.24.15c1.27-.72,3.67-1.87,3.6-2.4l.95-.19c2.77-1.12,1.31-1.55,2.37-2.05l1.44-.49-1.13.87c1.28-.67,1.82-.9,2.92-1.33v-.02c-.07.03-.13.04-.15.02l.15-.13c-.01-.3.48-.88,1.29-1.46,1.18-.8,1.88-1.73,4.03-2.61l.18-.74,1.58-.71.22.33c-1.39.91-3.88,2.82-5.58,4.12l.08.17c1.01-.77,2.09-1.73,2.79-2.19.38-.18,1.48-.42,1.01.23l.42-.76c1.72-1.22,2.61-1.81,3.54-2.36.93-.56,1.93-1.05,3.91-2.01l-.43.03c.68-.56,1.37-1.09,1.75-.94,2.29-1.3,4.82-2.38,6.56-2.72l.11-.6c.5-.24,1.57.03,1.51-.68l.96-.72c.69-.32,1-.74,1.89-.88h0s0,0,0,0c.05,0,.11-.01.17-.02,0-.01-.02-.02-.03-.03,1.64-.54-.2-.39,1.7-.97.71.05.39-.83,1.31-1.13l1.15.23c1.75-.3,1.74-1.09,4.09-2,1.21-.21,1.95.12,1.4.89.79-.98.31-.56,1.57-1.34.3.17.17.27-.05.59,1.31-.15.66-.49,1.58-.8.1-.56.16-1.39.45-1.52l-.41-.02c.9-.57,1.94-1.06,3.16-1.19l.03.25,1.19-.49.17.27c.57-.2,1.14-.43,1.72-.61h-.26c.4-.17,1.73-.65,2.55-.7l.02.17c2.33-.05,3.97-1.17,6.57-1.77l-.27.42c.96.17.13-.58,1.23-.61l.14.42c.83-.74,1.23-.11,1.9-.02l-.4-.5c.41-.04.82-.06,1.23-.09,1.37-.03.93.57.79.9l.83-.59.25.47c.57-.69.67,0,1.79-.48.12.18-.16.32.25.35.61-.31,1.21-.65,1.83-.95-.38.14-.75.3-1.12.46l.05-.75c1.15-.72,1.66-.11,2.5-.41l-.58.28c1.4-.32,1.5-.04,2.32.06-.26-.12-.66-.29-.09-.43.42-.07.25.24.66.29.05-.49,1.06-.83,2-.67,0,.07-.02.14-.08.19.23-.1.35-.23.76-.13l-.21.55.76-.55c.53.12,1.29-.31,1.23.06l-.29.12c1.33-.04,2.66.02,3.99.03l.06.43c.39-.6,2.16.26,2.04-.49.74.39,2.96-.19,2.49.63,1.3.08,2.3-.05,3.38-.09,1.08-.07,2.23-.06,3.78.33,1.03.82,4.09,1.04,6.05,1.5,3.91.48,6.46.84,10.41,1.84,2,1.67,5.87,1.7,8.09,3.25l.82-.07c1.34,1.28,4.11,1.7,6.01,3.4.61.13.92.22,1.05.28-.09-.07-.21-.21-.14-.46.55.47,1.89.99,1.56,1.37l-.18-.04c-.34.4,1.99.82,2.43,1.62l-.1-.68,1.1.77-.36-.1c2.8.97,4.5,2.27,6.12,3.55,1.63,1.29,3.15,2.6,5.66,3.84-.93.01,1.04.42.69.98.57,1.49,2.09,1.46,3.1,2.05.02-.02.05-.04.14-.04.48.45.98.89,1.45,1.35-1.42-.18,1.51.45.24.24,1.75,1.93,3.9,3.98,6.11,6.13,2.19,2.17,4.41,4.47,6.26,6.82v-.33c.93,1.19,2.36,2.47,2.81,3.59.46,1.1,1.99,1.65,2.28,2,1.06.8,1.18,2.14.88,1.69.87,1.04,2.25,1.62,3.06,3.37-.18.9,3.43,3.9,2.81,4.38l.07-.02c.82,2.33,2.81,3.79,3.67,6.31,0,0-.07-.02-.16-.07,1.56,1.14,3.08,2.34,4.62,3.56l1.56-2.57c-.11-1.73-.3-3.45-.48-5.2-2.31-3.69-4.77-7.28-7.4-10.74-1.78-2.99-3.66-5.92-5.65-8.8-5.44-6.51-11.48-12.52-18.05-17.91-.58-.25-1.18-.48-1.77-.71-1.61-1.98-3.91-3.69-6.33-5.31-2.42-1.62-4.94-3.15-7.08-4.85l-.36.37c-1.32-.76-1.07-.97-1.35-1.24-6.17-3.51-12.83-6.39-19.54-8.52-3.35-1.09-6.71-1.99-10.03-2.73-3.32-.76-6.58-1.37-9.75-1.88-1.19-.5-4.96-.61-5.91-.99-4.2.38-8.57.4-12.72.6l.15-.06-1.94.24c-.09-.03-.1-.09-.04-.14-2.16.58-5.63.56-8.34.77l.15-.08c-7.79,1.14-15.14,3.19-22.22,5.78-7.07,2.61-13.92,5.68-20.88,9.09-6.76,2.74-13.24,8.21-20.18,12.65-.75.26-4.4,3-7.81,6.01-3.43,2.99-6.61,6.23-7.07,6.82Z"/>
      <path class="d" d="M153.33,205.86l.04-.05c-.17-.13-.16,0-.04.05Z"/>
      <polygon class="d" points="180.94 185.76 180.86 185.83 181.35 185.8 180.94 185.76"/>
      <path class="d" d="M165.77,200.62c.7-.66.69-.72.54-.68-.24.25-.44.48-.54.68Z"/>
      <path class="d" d="M148.71,212.44c-.32.4-.1.32.19.16.3-.44.5-.74.5-.74-.21.2-.47.37-.69.58Z"/>
      <path class="d" d="M152.25,212.5l.04.23c.15-.26.09-.29-.04-.23Z"/>
    </g>
    <g>
      <path class="d" d="M239.21,244.22c0-.07-.04-.1,0,0h0Z"/>
      <path class="d" d="M259.36,221.69s0-.03,0-.06c-.1-.04-.19-.08-.25-.12l.26.18Z"/>
      <path class="d" d="M259.6,212.26s.01-.04.02-.06c-.06.01-.12,0-.02.06Z"/>
      <path class="d" d="M257.41,242.77c-.03.07-.02.12,0,.16,0-.05,0-.1,0-.16Z"/>
      <path class="d" d="M236.56,226.88s0,.02.01.04c.02-.04.03-.07.05-.11l-.06.07Z"/>
      <path class="d" d="M236.75,227.06c-.06.22-.15-.05-.18-.14-.12.24-.11.48-.03.71.16-.02.1-.46.2-.57Z"/>
      <path class="d" d="M239.07,195.96l.03.11s-.01-.08-.03-.11Z"/>
      <path class="d" d="M264.95,244.36l-.02.17c.03-.08.03-.13.02-.17Z"/>
      <path class="d" d="M237.45,200.55l.22.11c-.09-.07-.16-.1-.22-.11Z"/>
      <path class="d" d="M259.11,221.51l-.1-.07s.06.04.1.07Z"/>
      <path class="d" d="M258.64,203.58c.07-.02.13-.05.18-.08,0-.01,0-.02,0-.02l-.17.1Z"/>
      <path class="d" d="M233.16,201.01s.06.02.1.02l-.08-.24c-.03.09-.03.17-.02.22Z"/>
      <path class="d" d="M256.06,192.85s-.06,0-.09.02c.04.19.29.57.6,1.09l.28-.12c-.25-.35-.51-.67-.79-.99Z"/>
      <path class="d" d="M244.75,182.63c.7-.05,1.43-.03,2.11.03-1.56.39-2.78.96-3.75,1.5-.98.55-1.76,1.09-2.46,1.61-1.37,1.04-2.51,2.05-3.72,3.69l.06-.25c-.26.16-.19.54-.74,1.33-.54.81-1.7,1.96-4.19,4.22l-.05-.03c-.12.2-.01.26-.39.56.3-.26.61-.5.92-.75-.25.64-.3,1.3-.73,2.07-.15.13-.29.12-.38.09-.34.65-.66,1.3-.95,1.97-.22.14-.44.28-.65.43-.09.71.76.76-.36,2.2.79-.39-.02.94.34.85-.1.06-.27.2-.42.32-.34.99-.78,2.93-.62,3.47,0,0,.15-.22.38-.56.23-.34.55-.8.93-1.27.72-.94,1.63-1.91,2.12-2.26-.69,1.21-.08.36.21.19l-.1-.14c.46-.7.81-.54,1.06-.86-.03-.01-.06-.02-.1-.02l.02.07c-.07,0-.1-.03-.12-.09-.07-.02-.11-.09,0-.28l.02.06c.09-.34.43-.83.57-1.05l.27.14c-.12-.4.56-1.2,1.36-1.92.79-.73,1.68-1.37,1.92-1.68.77-.42.97-1.49,1.76-2.12,1.09-1.13.85-.3,1.56-.71.8-.58-.4-.1-.15-.4l1.11-.54c-.44.51-.05.37.11.37.73-.68,2.25-1.29,2.08-1.94,1.19-.62,1.32-.38,1.75-.66-.2,0-.54.13-.61.03.55-.07.15-.19-.05-.12.22-.34,1.19-.68,1.97-.78.79-.11,1.36-.03,1.37-.37l.02.12c.06-.51-.28-.94.16-1.29.12.05.23.13.34.19.16-.07.31-.17.48-.23.33.17.16.3.16.36.8-.22,1.89.28,2.76.72-.15-.54-.35-1.1-.61-1.64.42.27.95.73,1.38,1.09.43.37.79.63.98.5l.21.67c.87,1.73,1.21.47,1.58,1.15.1.33.18.66.25.98-.19-.21-.38-.42-.58-.63.42.79.5,1.12.63,1.86h.02c-.01-.05,0-.09.01-.11l.08.09c.26-.07.66.21.97.75.38.78,1.05,1.27,1.1,2.82l.6.17c.03.38.05.77.07,1.16l-.38.12c-.29-1.06-1.15-2.85-1.84-3.91l-.17.07c.38.64.93,1.35,1.09,1.86.03.27-.13,1.02-.55.69l.54.31c.47,1.23.65,1.91.79,2.6.13.7.19,1.44.25,2.95l.15-.29c.23.56.45,1.14.15,1.36.26,1.82.26,3.74-.1,4.97l.5.2c.02.39-.63,1.04.06,1.15l.29.8c.02.53.32.83.1,1.45h0s0,0,0,0c-.01.04-.03.08-.05.12.01,0,.03,0,.04-.01-.11,1.21.43-.05.26,1.34-.31.46.63.44.57,1.12l-.64.71c-.33,1.22.37,1.4.42,3.15-.23.85-.8,1.26-1.33.72.64.75.42.34.72,1.35-.26.16-.31.05-.54-.17-.3.89.24.55.22,1.23.48.2,1.25.43,1.28.66l.15-.26c.25.73.36,1.53.09,2.36l-.24-.04.09.9-.31.04.04,1.28.09-.17c.03.3.07,1.29-.12,1.85l-.17-.03c-.66,1.54-.05,2.9-.22,4.74l-.32-.28c-.42.58.52.24.25.95l-.43-.02c.48.73-.24.82-.52,1.22l.59-.12-.25.81c-.34.88-.8.43-1.07.25l.33.69-.52.03c.49.55-.17.42-.03,1.25-.2.02-.26-.19-.4.05.14.47.27.93.4,1.41l-.12-.83.69.26c.35.93-.35,1.06-.3,1.67l-.11-.44c-.07.96-.4.92-.7,1.38.18-.11.44-.3.43.1-.05.28-.29.07-.45.29.45.21.48.94.05,1.43-.06-.03-.12-.07-.15-.12.02.17.12.3-.1.5l-.45-.34.29.66c-.26.27-.1.88-.42.69l-.02-.22c-.37.76-.79,1.56-1.2,2.18l-.39-.18c.43.51-.85.93-.18,1.28-.57.14-.82,1.59-1.32.86-.99,1.08-1.05,2.32-2.76,3.08-.92-.21-2.17.77-3.09.92-.8.36-1.47.61-2.12.64-.65.03-1.36.02-2.2-.36-.17-.73-.68-.99-1.26-1.46-.57-.47-1.18-1.12-1.26-1.89l-.53-.21c.08-.59-.19-1.17-.45-1.87-.27-.68-.5-1.49-.38-2.33-.25-.35-.34-.55-.38-.63,0,.08-.06.2-.29.29.07-.49-.31-1.4.2-1.42l.07.11c.5,0-.47-1.38-.11-1.99l-.49.37-.04-.93.14.23c-1.72-3.99-.27-6.08-1.77-9.83.63.45-.38-.73.25-.85.71-1.05-.36-1.79-.63-2.57-.03,0-.07,0-.12-.05l-.04-1.4c.88.77-.75-.96,0-.24.32-3.67-.48-8.37,0-12.52l-.21.17c.05-1.05-.06-2.37.32-3.14.37-.76-.34-1.77-.35-2.09-.25-.91.54-1.61.46-1.24.02-.93-.54-1.91-.02-3.14.76-.28.08-3.6.88-3.44l-.06-.03c.49-.72.61-1.51.74-2.32.16-.8.35-1.62.87-2.36,0,0,.04.05.07.13-.34-1.4-.52-2.8-.75-4.29-.92-.04-1.85-.06-2.79-.07-1.09.77-2.23,1.58-3.26,2.47-1,3.08-1.6,6.24-2.03,9.37-.34,1.22-.71,2.44-.96,3.68l-.42,1.86-.35,1.86c-.36,6.12.03,12.12.62,17.99l.7,1.2c-.69,3.56,1.02,7.81.77,11.54h.51c.17,1.07-.14,1.05-.19,1.32.41,2.52.95,5.15,2.02,7.84,1.03,2.65,2.73,5.49,5.45,7.54,1.35,1.03,2.9,1.71,4.53,2.17,1.64.45,3.33.48,4.92.34,3.15-.43,5.83-1.67,8.04-3.14.25-.09.59-.29.97-.54.37-.26.75-.59,1.14-.92.75-.67,1.45-1.34,1.83-1.54.92-1.48,1.77-3,2.57-4.57.42-.81.74-1.53,1.07-2.27.33-.74.64-1.47.93-2.2v.13c.14-.47.29-.95.41-1.42.06-.05.12-.03.14.02.11-1.7,1.19-4.05,1.72-5.97l.03.12c.58-2.83.86-5.6,1.01-8.29.16-2.69.19-5.37.15-8.03-.08-5.33-.47-10.61-.87-16.1.04-2.6-.43-5.27-1.26-8.24-.84-2.95-2.05-6.13-3.94-9.3-.08-.32-.78-1.41-2-2.6-1.21-1.2-2.98-2.46-5.05-3.29-2.06-.84-4.45-1.19-6.38-.98-1.93.19-3.3.78-3.62.96Z"/>
      <path class="d" d="M231.42,196.71l.02-.04c-.18-.1-.15,0-.02.04Z"/>
      <polygon class="d" points="252.18 188.93 252.12 188.89 252.21 189.26 252.18 188.93"/>
      <path class="d" d="M241.34,193.32c.49-.41.47-.47.35-.47-.17.16-.3.32-.35.47Z"/>
      <path class="d" d="M229.15,202.38c-.16.36.01.26.23.1.12-.38.21-.64.21-.64-.13.18-.31.35-.44.54Z"/>
      <path class="d" d="M232.38,202.05l.11.17c.05-.21-.02-.23-.11-.17Z"/>
    </g>
    <g>
      <path class="d" d="M184.05,144.3s.03.04,0,0h0Z"/>
      <path class="d" d="M173.13,118.52s0-.01-.01-.02c-.1.01-.19.03-.26.04h.27Z"/>
      <path class="d" d="M172.16,114.08s.01-.02.02-.04c-.06.02-.11.04-.02.04Z"/>
      <path class="d" d="M177.7,127.88s.04.05.07.05c-.03-.01-.05-.03-.07-.05Z"/>
      <path class="d" d="M187.71,151.7s0,0-.02-.01c-.01.02-.02.04-.04.07l.05-.05Z"/>
      <path class="d" d="M187.52,151.68c.03-.12.14-.03.18,0,.08-.15.05-.26-.05-.34-.14.06-.04.25-.13.34Z"/>
      <path class="d" d="M194.04,165.24l-.08-.02s.05.01.08.02Z"/>
      <path class="d" d="M184.67,124.71s.04.04.06.05c0-.03-.03-.05-.06-.05Z"/>
      <path class="d" d="M193.23,163.02l-.24.08c.1-.02.18-.05.24-.08Z"/>
      <path class="d" d="M172.86,118.53h-.1s.06,0,.1,0Z"/>
      <path class="d" d="M170.88,110.12c.07-.03.12-.06.17-.08,0,0,0-.01,0-.01l-.17.1Z"/>
      <path class="d" d="M167.69,89.09l-.09.04.19.02s-.06-.06-.11-.06Z"/>
      <path class="d" d="M169.96,104.4s-.06,0-.09.01c-.05.12.02.37.14.67l.29-.08-.35-.6Z"/>
      <path class="d" d="M174.57,96.2l-.38.77c-.91-1.73-.62-2.79-1.62-4.19l.15.04c.06-.27-1.29.04-.56-3.02l.06-.02c-.04-.08-.15-.04-.06-.27l-.21.56c-.23-.21-.59-.35-.74-.68.04-.1.15-.16.24-.2l-.38-.82.29-.39c-.29-.19-1.04.19-.83-.66-.46.45-.44-.24-.69-.06.06-.06.13-.17.2-.27-.2-.39-.62-1.13-.97-1.23,0,0-.6,2.01-1.04,2.65-.05-.64-.12-.13-.26.05h.15c-.02.39-.36.51-.4.71.03,0,.06-.03.09-.04h-.05c.06-.04.1-.05.14-.04.07-.03.14-.03.15.07h-.04c.1.12.13.4.14.51l-.29.1c.64.08-.25,2.04-.15,2.39-.24.48.36.76.33,1.26.15.73-.3.49-.43.93-.03.5.31-.2.38-.03l-.22.66c-.14-.29-.26-.07-.35.03.11.47-.17,1.37.45,1.31-.06.71-.29.79-.23,1.06.07-.12.11-.33.22-.37-.17.33.1.1.12-.02.38.29-.37,2.31.29,2.17l-.11.04c.5-.08.91-.37,1.26-.2l-.15.25.29.19c-.09.23-.25.19-.3.21.37.35.32,1.04.43,1.58l1.08-1c-.14.54-.47,1.54-.02,1.48l-.34.41c-.51,1.16.57.48.45.92l-.31.6-.15-.44c-.08.52-.17.75-.35,1.21,0,0,.01,0,.01,0,.01-.03.03-.05.05-.07l.03.06c.25-.03.49.14.59.45.09.46.56.68.31,1.55h.54s-.1.63-.1.63l-.38.14c-.16-.52-.65-1.44-.9-2.09l-.18.05c.14.39.47.78.52,1.05-.03.15-.31.62-.65.48l.46.11c.51,1.29.53,1.29.6,2.81l.15-.19c.21.23.42.46.14.65.23.84.3,1.78.02,2.48l.49-.05c.04.18-.54.69.11.54l.33.3c.05.25.36.3.2.66h0s0,0,0,0c-.01.02-.02.04-.03.07l.04-.02c0,.61.4-.15.37.55-.24.31.65,0,.65.34l-.53.54c-.17.68.51.53.8,1.31-.09.46-.57.84-1.14.78.71.12.44.01.89.36-.21.16-.28.13-.54.11-.13.51.31.17.41.48.49-.08,1.25-.25,1.31-.16l.1-.17c.36.23.61.54.52,1l-.23.07.27.35-.28.13.3.53.05-.11c.09.12.35.52.3.82l-.16.05c-.24.9.64,1.23,1.01,2.03l-.37.02c-.22.41.54-.12.5.28l-.4.17c.65.09.03.42-.09.7l.49-.3.03.42c-.01.49-.57.51-.87.56l.53.13-.45.24c.62,0,0,.24.43.5-.17.1-.3.04-.33.2l.89.35-.43-.25.7-.22c.66.18.12.54.42.74l-.27-.11c.34.38.05.51,0,.82.1-.13.24-.32.4-.17.09.12-.21.16-.24.32.47-.15.83.08.73.45-.07.02-.13.04-.18.04.1.04.23.04.17.21l-.54.12.58.06c-.07.22.39.31.04.42l-.14-.05.36,1.29-.4.18c.6-.09.05.76.73.45-.29.38.63.82-.21.99.26.84,1.18.98,1.2,2.12-.52.61.08,1.5.26,2.16.77,1.13,1.34,1.83,2.06,3.01-.61,1.13,1.09,1.77.9,2.8l.46.07c-.36.78.69,1.32.44,2.31.24.12.33.2.36.24,0-.04.05-.12.28-.23-.07.28.31.64-.16.8l-.07-.04c-.48.16.49.57.19.98l.44-.34.09.45-.14-.07c1.84,1.33.6,2.79,2.31,4.05-.63,0,.42.21-.16.48-.57.73.49.72.83.98.03-.01.06-.02.12-.02l.18.63c-.9-.05.8.17.03.11.11,1.81,1.56,3.62,2.08,5.55l.16-.16c.16.48.64.95.49,1.43-.15.48.82.55.91.68.5.24,0,.87-.05.69.27.37,1.11.46,1.07,1.15-.55.47,1.3,1.28.6,1.6l.06-.02c-.18.95.97,1.26.87,2.24,0,0-.06,0-.12,0l2.85.64,2.16-1.5,1.31-2.22-2.05-3.53-.53-3.29-3.34-7.13-.76-.29c.34-1.82-1.51-3.2-1.47-5.02l-.48.16c-.21-.42.09-.51.13-.65-1.78-3.99-4.07-7.92-4.94-11.81.17-.47-.44-1.48-.22-1.88-1.04-.96-1.52-2.23-1.93-3.44l.07.03-.31-.53s.08-.06.13-.06c-.66-.47-.63-1.63-.76-2.47l.07.03c-1.66-4.56-4.11-8.46-5.11-13.22,0-2.38-1.95-4.44-2.16-7.1.3-.61-1.76-5.38-2.14-5.74Z"/>
      <path class="d" d="M171.46,89.19v.02c.21-.07.12-.07,0-.02Z"/>
      <polygon class="d" points="169.5 101.25 169.5 101.22 169.26 101.44 169.5 101.25"/>
      <path class="d" d="M167.07,94.77c.04.32.09.31.16.24-.02-.11-.07-.2-.16-.24Z"/>
      <path class="d" d="M170.27,86.92c-.04-.16-.14-.06-.24.07.07.15.13.25.13.25.02-.1.1-.22.11-.33Z"/>
      <path class="d" d="M167.76,88.46h-.18c.07.08.13.06.18,0Z"/>
    </g>
    <g>
      <path class="d" d="M244.5,117.72s.02.06,0,0h0Z"/>
      <path class="d" d="M240.9,83.68s0-.02,0-.03c-.1-.02-.19-.03-.26-.04l.27.08Z"/>
      <path class="d" d="M240.96,78.14s.01-.02.02-.04c-.06,0-.12,0-.02.04Z"/>
      <path class="d" d="M243.03,96.22s.02.07.06.09c-.02-.03-.05-.05-.06-.09Z"/>
      <path class="d" d="M245.66,127.76s0-.01-.01-.02c-.02.02-.03.04-.06.06l.07-.04Z"/>
      <path class="d" d="M245.48,127.66c.07-.13.14.03.17.08.13-.14.13-.28.06-.41-.16,0-.12.26-.23.33Z"/>
      <path class="d" d="M248.18,147.03h-.11s.07,0,.11,0Z"/>
      <path class="d" d="M250.59,95.01s.03.06.04.08c0-.04-.02-.07-.04-.08Z"/>
      <path class="d" d="M247.01,143.14l-.25-.02c.1.02.18.03.25.02Z"/>
      <path class="d" d="M240.64,83.61l-.1-.03s.06.02.1.03Z"/>
      <path class="d" d="M240.57,73.07c.08-.01.13-.03.18-.05,0,0,0-.01,0-.01l-.18.06Z"/>
      <path class="d" d="M241.32,47.09s-.06.01-.09.03l.19.08c-.02-.05-.05-.09-.09-.1Z"/>
      <path class="d" d="M240.84,66.01s-.06-.02-.09-.01c-.07.13-.05.44,0,.84h.3s-.22-.83-.22-.83Z"/>
      <path class="d" d="M246.93,57.55l-.51.82c-.57-2.35-.11-3.54-.87-5.52l.15.1c.1-.32-1.28-.3-.05-3.81h.06c-.03-.12-.15-.1-.02-.35l-.29.62c-.2-.32-.53-.58-.63-1.02.05-.11.17-.15.27-.18l-.25-1.1.34-.39c-.26-.31-1.06-.04-.73-1.01-.52.42-.4-.4-.68-.25.06-.06.16-.17.24-.27-.14-.53-.44-1.52-.77-1.74,0,0-.91,2.28-1.45,2.93.05-.78-.1-.19-.27-.01l.15.03c-.08.47-.44.52-.51.76.03,0,.06-.02.1-.03l-.05-.02c.06-.03.11-.02.15,0,.08-.02.14,0,.14.12l-.04-.02c.08.18.07.52.06.66l-.3.04c.62.26-.56,2.38-.53,2.83-.32.5.23,1,.11,1.6.02.92-.38.51-.58,1-.12.59.34-.16.39.06l-.33.73c-.09-.39-.24-.15-.35-.06.03.59-.41,1.59.22,1.69-.18.83-.43.86-.41,1.2.1-.13.17-.37.29-.38-.23.35.08.14.13,0,.32.45-.79,2.64-.11,2.66l-.12.02c.51.05.96-.19,1.28.11l-.19.25.25.31c-.13.25-.28.15-.34.16.3.52.12,1.33.14,2.01l1.25-.87c-.24.6-.74,1.7-.3,1.76l-.41.39c-.73,1.24.47.75.26,1.23l-.42.63-.06-.57c-.18.6-.32.84-.58,1.33h.01s.04-.05.07-.06l.02.08c.25.04.46.32.49.72,0,.57.41.97,0,1.94l.53.17-.22.71-.4.05c-.05-.67-.35-1.9-.47-2.75h-.18c.06.51.31,1.07.31,1.41-.06.17-.43.64-.73.37l.43.27c.23,1.69.25,1.7,0,3.51l.18-.18c.16.34.31.67,0,.81.05,1.07-.07,2.19-.51,2.93l.49.1c0,.23-.68.64,0,.68l.26.46c0,.31.29.47.05.85h0s0,0,0,0c-.02.02-.03.05-.05.07h.04c-.14.71.42-.06.23.76-.31.29.63.22.56.62l-.64.46c-.32.74.38.79.48,1.8-.19.51-.75.81-1.29.54.67.38.43.16.78.72-.25.12-.31.06-.55-.05-.25.55.26.3.29.69.49.07,1.27.12,1.32.25l.14-.17c.3.39.46.84.27,1.35h-.24s.17.51.17.51l-.31.06.17.73.07-.11c.06.17.22.73.09,1.07h-.17c-.45.97.32,1.66.48,2.73l-.36-.11c-.31.4.55.05.42.5l-.43.06c.6.33-.07.51-.26.79l.55-.18-.07.51c-.14.57-.68.4-.99.35l.48.33-.49.12c.61.22-.07.28.29.73-.19.06-.3-.05-.37.12l.78.73-.35-.45h.74c.6.44-.02.67.21,1.01l-.24-.22c.23.56-.08.62-.21.96.13-.11.31-.29.43-.06.06.17-.25.12-.31.29.49,0,.78.39.59.78-.07,0-.14,0-.18-.02.09.09.22.13.11.31l-.55-.05.54.28c-.13.23.29.51-.08.51l-.12-.11v1.64s-.42.06-.42.06c.61.11-.15.9.59.79-.38.34.39,1.18-.47,1.07.02,1.07.88,1.58.57,2.91-.67.52-.34,1.77-.35,2.6.42,1.6.77,2.64,1.12,4.28-.91,1.07.53,2.47.04,3.59l.42.27c-.58.76.27,1.8-.28,2.85.19.23.25.36.27.42.02-.05.09-.12.33-.16-.16.3.1.87-.4.86l-.06-.07c-.5,0,.29.86-.12,1.2l.53-.21-.06.55-.11-.14c1.34,2.29-.29,3.46.93,5.62-.6-.26.33.42-.31.49-.77.61.23,1.03.47,1.47.03,0,.07,0,.12.03l-.03.81c-.84-.43.7.54,0,.14-.48,2.13.27,4.82.12,7.26l.2-.12c0,.62.28,1.37-.03,1.85s.57,1,.62,1.18c.38.5-.31.99-.28.77.12.54.89,1.02.6,1.8-.67.29.77,2.04,0,2.1h.07c-.26.48-.12,1.28.18,1.98.29.68.76,1.34,1.08,1.9,0,0-.07.02-.15.01.7.1,1.35-.14,1.92-.57.28-.22.55-.5.76-.83.1-.17.19-.35.27-.52.04-.09.06-.16.13-.26.09-.1.16-.2.22-.28.51-.11.69-.1.94-.15.23-.05.44-.12.64-.22.19.06.36-.33.92-.7-.07-.01-.13-.05-.18-.09-.04,0-.1-.08-.15-.49l-.34-2.51.64-4.06-.8-9.77-.62-.66c.91-1.98-.42-4.37.18-6.49h-.5c-.07-.59.25-.57.32-.72-.47-5.42-1.54-10.95-1.31-15.88.29-.5-.02-1.91.3-2.31-.74-1.53-.89-3.21-.96-4.8l.06.06-.16-.74s.1-.04.14-.02c-.52-.8-.19-2.17-.11-3.22l.06.06c-.46-6.03-1.96-11.51-1.9-17.54.5-2.86-.97-5.95-.68-9.21.44-.64-.72-7.02-1.03-7.56Z"/>
      <path class="d" d="M245.04,48.2v.02c.22-.03.13-.06,0-.02Z"/>
      <polygon class="d" points="241 62.13 241 62.09 240.72 62.29 241 62.13"/>
      <path class="d" d="M239.76,53.72c-.02.39.04.4.11.33,0-.14-.04-.26-.11-.33Z"/>
      <path class="d" d="M244.22,45.14c-.01-.2-.13-.11-.25.03.05.2.08.34.08.34.03-.12.13-.25.16-.37Z"/>
      <path class="d" d="M241.48,46.35l-.18-.04c.06.11.12.1.18.04Z"/>
    </g>
    <g>
      <path class="d" d="M300.84,124.94s0,.06,0,0h0Z"/>
      <path class="d" d="M310.57,96.96s0-.02,0-.03c-.09-.06-.16-.1-.22-.15l.21.17Z"/>
      <path class="d" d="M312.83,92.73s.02-.01.04-.02c-.06-.02-.11-.05-.04.02Z"/>
      <path class="d" d="M307.59,107.57s0,.07.02.09c-.01-.03-.02-.06-.02-.09Z"/>
      <path class="d" d="M298.28,133.3s0-.01,0-.02c-.02,0-.04.02-.08.03h.08Z"/>
      <path class="d" d="M298.15,133.15c.11-.07.12.08.13.13.17-.06.22-.17.2-.3-.15-.05-.2.16-.33.17Z"/>
      <path class="d" d="M293.11,148.27l-.04-.07s.02.05.04.07Z"/>
      <path class="d" d="M314.9,109.82s0,.05,0,.08c.02-.03,0-.06,0-.08Z"/>
      <path class="d" d="M294.14,145.98l-.22-.11c.09.06.16.09.22.11Z"/>
      <path class="d" d="M310.36,96.79l-.08-.07s.04.04.08.07Z"/>
      <path class="d" d="M314.53,88.66c.07.03.13.04.18.04,0,0,0,0,0-.01l-.19-.03Z"/>
      <path class="d" d="M326.01,69.28s-.06-.02-.09-.02l.13.14s-.01-.09-.04-.12Z"/>
      <path class="d" d="M317.65,83.39s-.04-.04-.07-.05c-.11.07-.23.32-.34.65l.28.13.14-.72Z"/>
      <path class="d" d="M326.59,79.7l-.8.39c.46-2.03,1.37-2.72,1.54-4.55l.09.14c.22-.19-1.01-.81,1.56-2.88l.06.02c.02-.1-.09-.14.13-.27l-.52.33c-.04-.33-.22-.67-.12-1.05.09-.05.22-.04.31-.01l.24-.94.47-.14c-.1-.35-.92-.52-.21-1.09-.64.07-.19-.49-.5-.5.08-.01.21-.06.33-.09.1-.46.26-1.34.06-1.65,0,0-1.78,1.29-2.53,1.53.38-.56,0-.19-.23-.13l.12.09c-.27.32-.61.19-.78.34.03.01.06.02.1.02l-.04-.04c.07,0,.1.03.13.06.07.02.13.06.07.15l-.03-.03c0,.17-.16.42-.23.53l-.29-.1c.44.48-1.52,1.53-1.68,1.89-.5.23-.22.86-.58,1.25-.37.7-.55.21-.94.49-.35.39.37.03.32.22l-.6.4c.09-.33-.15-.22-.28-.21-.23.46-1.03,1.02-.52,1.38-.51.54-.74.46-.87.72.14-.05.3-.2.42-.16-.35.16.02.15.11.06.1.49-1.8,1.65-1.21,1.97l-.11-.04c.43.27.94.29,1.09.66l-.28.11.1.35c-.22.13-.31,0-.37-.03.05.53-.45,1.06-.71,1.58l1.48-.1c-.47.35-1.37.96-1,1.2l-.53.12c-1.16.62.11.78-.27,1.05l-.64.29.18-.46c-.41.37-.63.5-1.07.75,0,0,0,0,.01,0,.03-.02.06-.03.09-.02v.07c.2.14.27.44.13.76-.24.44-.03.93-.8,1.48l.41.36-.49.45-.38-.14c.23-.53.47-1.61.71-2.31l-.17-.08c-.15.41-.16.94-.3,1.2-.13.1-.65.3-.81-.05l.27.39c-.48,1.39-.46,1.41-1.43,2.69l.24-.05c0,.33,0,.65-.33.62-.39.84-.96,1.64-1.65,2.02l.4.29c-.09.17-.87.19-.28.52l.05.46c-.13.24.07.48-.29.67,0,0,0,0,0,0,0,0,0,0,0,0-.02.01-.05.02-.07.03.01,0,.03,0,.04.01-.41.49.4.14-.1.69-.39.09.48.44.26.72l-.76.08c-.58.43.02.77-.29,1.6-.38.31-.99.3-1.38-.15.45.58.32.31.42.89-.27-.02-.3-.09-.48-.27-.44.32.12.34-.02.66.42.26,1.1.64,1.09.76l.19-.07c.11.43.09.84-.29,1.15l-.22-.1-.04.46-.3-.08-.14.63.11-.05c-.01.16-.09.66-.34.86l-.16-.07c-.79.56-.36,1.42-.63,2.31l-.29-.24c-.44.17.48.27.18.57l-.41-.13c.42.51-.27.36-.55.5l.57.1-.26.36c-.34.38-.77.02-1.03-.15l.3.46-.49-.12c.46.43-.17.19-.02.69-.19-.03-.25-.17-.38-.07l.42.89-.15-.5.67.3c.37.6-.28.52-.2.88l-.13-.27c-.01.53-.31.45-.56.66.16-.03.39-.09.41.14-.01.15-.27-.01-.39.09.44.2.56.63.23.86-.06-.03-.12-.06-.16-.09.04.11.15.19-.01.28l-.48-.27.39.44c-.2.12.07.51-.27.36l-.06-.14-.62,1.27-.41-.13c.51.34-.48.64.23.86-.47.11-.1,1.08-.83.64-.39.84.19,1.6-.58,2.51-.81.12-.98,1.23-1.3,1.88-.22,1.43-.29,2.38-.58,3.81-1.24.46-.44,2.15-1.3,2.83l.28.38c-.81.36-.42,1.52-1.3,2.12.09.26.1.38.09.44.03-.03.12-.06.36.01-.25.17-.22.72-.68.51l-.03-.08c-.46-.21-.05.79-.55.9l.56.05-.25.41-.05-.15c.4,2.34-1.53,2.6-1.18,4.79-.46-.44.15.46-.45.26-.93.17-.15.9-.09,1.35.03.01.06.03.1.07l-.32.62c-.61-.67.45.7-.06.11-1.2,1.48-1.46,3.91-2.46,5.78h.23c-.22.47-.22,1.18-.67,1.44-.45.26.18,1.01.16,1.17.18.54-.63.67-.53.5-.07.48.46,1.15-.07,1.66-.72-.03,0,1.91-.73,1.66l.06.03c-.81.6-.22,1.66-1,2.34,0,0-.05-.04-.09-.08l1.55,2.55,2.6.42,2.53-.76,1.1-4.21,1.98-2.95,2.7-7.97-.33-.77c1.54-1.19,1.18-3.58,2.49-4.99l-.46-.21c.15-.48.43-.34.55-.42,1.54-4.41,2.6-9.14,4.67-12.85.45-.26.7-1.48,1.14-1.66-.09-1.49.42-2.84.96-4.1l.03.07.14-.64s.11,0,.13.04c-.16-.84.65-1.75,1.13-2.52l.03.07c1.91-4.82,2.73-9.66,5.19-14.22,1.61-1.95,1.53-4.95,3.13-7.28.64-.3,2.25-5.62,2.2-6.16Z"/>
      <path class="d" d="M328.83,71.82v.02c.19.07.13.02,0-.02Z"/>
      <path class="d" d="M319.39,80.51s.01-.02.02-.03l-.33.02h.31Z"/>
      <path class="d" d="M321.81,73.58c-.18.29-.14.32-.04.3.05-.11.08-.21.04-.3Z"/>
      <path class="d" d="M329.41,69.15c.08-.16-.06-.14-.23-.09-.04.17-.07.29-.07.29.08-.07.22-.13.3-.2Z"/>
      <path class="d" d="M326.47,68.8l-.14-.11c0,.11.06.13.14.11Z"/>
    </g>
    <g>
      <path class="d" d="M221.1,424.7c-.05-.04-.09,0,0,0h0Z"/>
      <path class="d" d="M267.57,426.87s.03,0,.04,0c.02-.13.04-.24.06-.33l-.1.33Z"/>
      <path class="d" d="M275.09,426.66s.03.02.05.03c-.02-.07-.02-.15-.05-.03Z"/>
      <path class="d" d="M250.36,428.73c-.07,0-.1.02-.13.06.04-.03.08-.05.13-.06Z"/>
      <path class="d" d="M208.17,421.34s.02,0,.03,0c-.01-.03-.03-.06-.04-.1v.1Z"/>
      <path class="d" d="M208.39,421.2c.11.15-.11.15-.19.14.09.22.24.31.44.3.08-.18-.24-.28-.25-.45Z"/>
      <path class="d" d="M203.16,407.99v.1s0-.06,0-.1Z"/>
      <path class="d" d="M250.91,438.3s-.09.02-.12.04c.06,0,.1-.01.12-.04Z"/>
      <path class="d" d="M200.9,410.2l.24.2c-.09-.09-.17-.15-.24-.2Z"/>
      <path class="d" d="M267.67,426.54l.04-.13s-.03.07-.04.13Z"/>
      <path class="d" d="M281.95,425.55c.02.09.05.16.09.22,0,0,.02,0,.02,0l-.11-.22Z"/>
      <path class="d" d="M308.74,411.74s-.06.05-.09.08h.27c-.06-.05-.12-.08-.18-.08Z"/>
      <path class="d" d="M291.55,424.46s.01-.07,0-.11c-.19-.05-.6.07-1.14.22l.07.37c.36-.15.71-.31,1.06-.48Z"/>
      <path class="d" d="M304.98,429.22c-.5-.05-.97-.13-1.44-.21,1.73-.9,3.14-1.5,4.48-2.29,1.32-.8,2.66-1.77,3.78-3.69l-.02.3c.16-.12.17-.34.27-.7.05-.18.12-.39.23-.68.1-.27.26-.61.52-1.06.56-1.1,1.54-2.96,2.14-5.89h.08c-.03-.28-.18-.25-.05-.81-.08.46-.21.92-.35,1.36-.22-.78-.65-1.38-.91-2.34.03-.23.17-.34.28-.39-.25-.81-.59-1.62-1.05-2.41.03-.32.02-.66,0-1.01-.36-.32-.7-.23-1.05-.35-.19-.06-.39-.16-.61-.39-.22-.23-.46-.57-.9-1.11.28,1.15-1.25-.46-1.24.08-.06-.14-.25-.4-.4-.63-.35-.18-.81-.33-1.31-.45-.5-.14-1.02-.17-1.52-.17-.51-.02-.93.07-1.28.17-.35.1-.61.21-.75.32,0,0,.34.05.84.18.48.09,1.18.38,1.81.73.31.21.61.44.88.67.26.24.47.53.65.77.34.51.5,1,.54,1.3-.89-1.03-.3-.15-.29.17l.18-.07c.38.69,0,.95.07,1.3.03-.02.06-.05.09-.09h-.07c.05-.07.1-.09.16-.08.08-.06.16-.08.24.1h-.06c.24.2.37.69.44.9l-.35.15c.43.07.48,1,.23,1.84-.22.86-.75,1.58-.77,1.84-.27.25-.27.52-.29.83,0,.31-.05.65-.29.89-.01.03-.03.05-.05.06-.61.73-.69.13-1.24.33-.56.35.43.16.3.38-.29.11-.59.19-.9.25.27-.35-.07-.32-.23-.37-.44.45-1.67.49-1.38,1.22-.97.22-1.11-.05-1.48.11.18.05.48.03.56.16-.49-.1-.11.16.06.15-.16.29-1,.37-1.76.42-.77.04-1.46.09-1.37.5l-.06-.14c.1.63.54,1.1.25,1.59l-.38-.15-.34.41c-.36-.08-.27-.29-.3-.36-.61.52-1.72.54-2.64.74l1.47,1.3c-.88-.12-2.49-.45-2.48.12l-.64-.39c-1.85-.56-.92.78-1.62.65l-.94-.36.76-.22c-.85-.07-1.21-.17-1.92-.37,0,0,0,.01,0,.02.05.01.08.03.1.07l-.1.05c0,.32-.33.66-.87.78-.78.12-1.26.73-2.64.43l-.14.69c-.34-.04-.67-.07-1.01-.12l-.12-.49c.9-.2,2.52-.86,3.65-1.19l-.04-.23c-.67.19-1.38.61-1.84.69-.25-.04-.93-.39-.62-.83l-.29.59c-2.24.65-2.27.64-4.75.67l.26.2c-.44.26-.88.49-1.1.12-1.45.21-2.98.24-4.03-.24l-.09.62c-.31.02-.92-.78-.92.06l-.6.37c-.42.03-.62.41-1.14.16h0s0,0,0,0c-.03-.02-.06-.03-.1-.05v.05c-.97-.11.11.53-1.02.35-.41-.37-.27.8-.82.75l-.65-.76c-1.02-.35-1.06.55-2.45.7-.7-.22-1.11-.91-.75-1.6-.51.85-.21.54-.97,1-.16-.3-.08-.38.06-.69-.75-.29-.4.34-.94.38-.09.62-.17,1.6-.34,1.66l.23.16c-.54.38-1.16.58-1.85.34v-.31s-.7.22-.7.22l-.08-.38-1,.21.15.09c-.23.08-1.01.27-1.47.09v-.22c-1.3-.61-2.28.35-3.77.48l.18-.45c-.52-.42-.11.68-.72.48l-.05-.54c-.51.73-.69-.13-1.06-.39l.19.71-.69-.13c-.76-.21-.48-.88-.38-1.26l-.5.57-.11-.62c-.36.74-.37-.11-1.02.28-.06-.24.11-.37-.11-.47l-1.08.88.65-.39-.08.92c-.68.69-.92-.1-1.41.15l.34-.27c-.8.22-.83-.17-1.28-.37.14.17.34.42.02.54-.24.05-.12-.32-.34-.42-.06.61-.64.91-1.15.61,0-.09.02-.17.06-.22-.13.09-.21.25-.43.1l.15-.67-.46.63c-.29-.2-.74.28-.68-.17l.17-.13c-.74-.08-1.48-.14-2.22-.25v-.54c-.26.73-1.19-.36-1.17.58-.39-.53-1.68.25-1.35-.78-1.44-.17-2.32.73-4.04.07-.54-.92-2.27-.87-3.39-1.1-2.26.1-3.69.18-6.04.1-1.18-1.46-3.52-.17-4.87-1.14l-.49.41c-.82-.96-2.49-.3-3.67-1.34-.37.14-.56.17-.64.17.06.04.13.15.09.46-.34-.3-1.17-.2-.97-.8l.11-.04c.2-.6-1.21.01-1.51-.61l.07.71-.68-.29.22-.08c-1.73.33-2.81-.14-3.82-.63-1.02-.5-1.97-1.01-3.57-.88.62-.55-.67.15-.42-.61-.31-1.19-1.32-.3-1.98-.29-.02.04-.04.08-.1.12-.31-.17-.62-.33-.91-.52.98-.65-1.03.43-.15-.1-1.06-.9-2.36-1.64-3.68-2.42-1.12-.71-2.14-1.52-2.53-2.45l-.18.22c-.09-.24-.33-.44-.45-.67-.1-.23-.18-.47-.04-.69.18-.22-.02-.34-.28-.46-.28-.12-.52-.25-.56-.32-.23-.2-.16-.42.02-.55.18-.13.39-.16.36-.07-.02-.22-.3-.46-.44-.76-.11-.29-.21-.65.12-.93.23,0,.34-.11.38-.31.02-.1.03-.21.04-.34.02-.12.04-.26.06-.39.04-.27.06-.54.15-.71.1-.16.24-.23.45-.1l-.06-.05c.3-.12.46-.29.62-.5.17-.2.29-.43.42-.68.25-.48.6-.97,1.24-1.13,0,0,.03.07.04.14,0-.62.03-1.28.11-1.94.09-.64.22-1.31.38-2-.78-.77-1.61-1.52-2.48-2.24-1.33-.21-2.69-.22-4.15-.12-2.17,2.24-4.08,5.02-4.89,8.49-1.13,2.59-1.44,5.95-.54,9.03.72,1.81,1.82,3.28,2.97,4.57.59.6,1.21,1.15,1.82,1.7.63.47,1.27.92,1.91,1.37,2.31,1.46,4.67,2.6,7.04,3.55.43-.08.86-.15,1.28-.25,1.14,1.14,2.76,1.68,4.39,2.09,1.64.43,3.3.74,4.68,1.56l.22-.59c.85.18.7.53.88.69,3.92.88,7.89,1.35,11.67,1.87,1.85.26,3.82.51,5.66.83,1.87.26,3.68.61,5.43.97.64.47,2.75.43,3.25.91,2.37-.61,4.8-.45,7.11-.32l-.09.07,1.09-.09c.05.05.05.13.01.17,1.24-.54,3.16.01,4.68.24l-.09.07c4.41-.01,8.64-.53,12.82-1.11,4.19-.62,8.33-1.3,12.7-1.69,4.21.21,8.48-2.27,13.18-2.77.47.18,3.07-.57,5.29-1.36,2.39-.8,5.1-2.08,5.48-2.45Z"/>
      <path class="d" d="M313.97,412.8l.02.05c.26-.07.14-.13-.02-.05Z"/>
      <polygon class="d" points="296.88 423.61 296.94 423.59 296.62 423.31 296.88 423.61"/>
      <path class="d" d="M305.94,418.63c-.3.25-.29.29-.16.32.11-.09.18-.2.16-.32Z"/>
      <path class="d" d="M308.88,406.71c-.53-.3-.38-.05-.16.27.27.13.49.25.65.33.16.08.24.14.24.14-.23-.23-.45-.52-.73-.74Z"/>
      <path class="d" d="M308.3,410.67l-.23.09c.18.08.22.04.23-.09Z"/>
    </g>
    <g>
      <path class="d" d="M216.38,402.84c-.05-.04-.1,0,0,0h0Z"/>
      <path class="d" d="M265.3,407.17s.03,0,.05,0c.02-.13.05-.24.07-.32l-.12.33Z"/>
      <path class="d" d="M273.27,407.07s.03.02.05.03c-.01-.07-.02-.15-.05-.03Z"/>
      <path class="d" d="M247,408.53c-.07-.01-.11.01-.14.05.04-.02.08-.05.14-.05Z"/>
      <path class="d" d="M203.68,398.17s.02,0,.03,0c0-.03,0-.06,0-.1l-.02.09Z"/>
      <path class="d" d="M203.91,398.08c.05.16-.14.12-.2.1,0,.23.13.34.31.36.11-.16-.15-.3-.11-.46Z"/>
      <path class="d" d="M210.57,384.41l-.04.1s.03-.07.04-.1Z"/>
      <path class="d" d="M247.28,418.11s-.09.02-.13.04c.07,0,.1,0,.13-.04Z"/>
      <path class="d" d="M206.92,385.91l.11.29c-.03-.13-.07-.22-.11-.29Z"/>
      <path class="d" d="M265.42,406.84l.05-.12s-.03.07-.05.12Z"/>
      <path class="d" d="M280.56,406.03c.02.09.05.16.08.22,0,0,.02,0,.02,0l-.11-.22Z"/>
      <path class="d" d="M309.9,392.05s-.06.05-.09.08l.27.02c-.06-.06-.12-.1-.18-.1Z"/>
      <path class="d" d="M290.74,404.96s.01-.08,0-.11c-.2-.05-.64.05-1.2.23l.06.38,1.14-.49Z"/>
      <path class="d" d="M304.58,409.71c-.49-.07-.97-.17-1.44-.26,1.77-.85,3.22-1.39,4.63-2.09,1.39-.7,2.8-1.57,4.15-3.38l-.06.29c.23-.12.22-.45.48-.99.13-.27.31-.64.62-1.08.15-.23.32-.49.53-.78.21-.29.42-.62.74-1.09.61-1.03,1.38-2.39,1.83-4.47h.08c-.03-.32-.15-.31,0-.93-.11.51-.27,1.04-.43,1.56-.17-.98-.56-1.66-.83-2.74.03-.24.17-.36.28-.41-.24-.9-.6-1.75-1.06-2.57.03-.33.02-.67,0-1.02-.36-.32-.68-.25-1.05-.37-.4-.12-.67-.43-1.41-1.51.1.59-.21.45-.52.24-.34-.2-.74-.46-.72-.22-.05-.14-.2-.42-.34-.66-.36-.17-.8-.39-1.3-.55-.53-.13-1.07-.29-1.62-.28-1.1-.08-1.99.23-2.31.44,0,0,.39.04.95.17.28.05.61.16.95.31.34.13.69.31,1.01.54,1.35.89,1.95,2.29,1.99,2.9-.86-1.1-.3-.18-.3.16l.19-.06c.37.73,0,.98.07,1.34.03-.02.06-.05.1-.09h-.07c.05-.08.11-.09.16-.08.08-.06.16-.07.24.11h-.06c.24.21.39.73.45.95l-.35.15c.43.09.51,1.07.22,1.95-.27.9-.82,1.57-.91,1.83-.31.25-.37.56-.44.93-.08.26-.18.61-.46.81-.78.87-.77.14-1.38.34-.62.34.42.2.26.42-.32.09-.65.15-.97.21.32-.36-.03-.35-.18-.4-.55.43-1.85.46-1.66,1.22-1.06.2-1.2-.09-1.61.08.19.06.51.04.59.17-.52-.11-.14.16.05.15-.21.29-1.11.36-1.95.4-.84.04-1.61.1-1.54.51l-.05-.14c.07.64.52,1.11.18,1.6l-.41-.15-.39.41c-.39-.08-.29-.29-.31-.36-.68.53-1.88.57-2.84.81l1.54,1.27c-.93-.1-2.61-.37-2.6.2l-.65-.38c-1.93-.57-.99.78-1.73.65l-.98-.36.81-.22c-.89-.07-1.27-.17-2.02-.37,0,0,0,.01,0,.02.05.01.09.03.1.07l-.11.05c-.01.32-.37.65-.95.79-.82.16-1.35.74-2.8.42l-.17.69-1.06-.13-.12-.49c.95-.22,2.71-.78,3.9-1.17l-.04-.23c-.71.22-1.48.62-1.97.69-.26-.04-.98-.41-.63-.84l-.32.59c-1.2.32-1.8.48-2.43.58-.63.1-1.29.11-2.62.07l.27.2c-.47.24-.94.48-1.16.11-1.54.2-3.16.25-4.25-.26l-.12.62c-.33.02-.95-.8-.98.05l-.65.36c-.45.02-.67.4-1.22.14h0s0,0,0,0c-.03-.02-.07-.04-.1-.05,0,.02,0,.03.01.05-1.03-.11.08.53-1.11.36-.42-.36-.31.81-.89.73l-.67-.78c-1.07-.38-1.14.49-2.62.65-.74-.23-1.14-.91-.74-1.6-.56.85-.24.54-1.05,1-.16-.31-.07-.38.09-.69-.78-.3-.44.33-1.01.35-.12.61-.23,1.59-.42,1.64l.24.17c-.58.36-1.25.56-1.98.3v-.31s-.74.2-.74.2l-.07-.39-1.07.19.15.1c-.25.07-1.08.26-1.56.05v-.22c-1.35-.64-2.43.26-4,.37l.2-.45c-.54-.43-.14.68-.78.48l-.03-.54c-.56.73-.73-.15-1.11-.43l.18.71-.73-.16c-.8-.25-.48-.91-.36-1.28l-.55.55-.1-.63c-.41.72-.39-.13-1.09.25-.05-.24.13-.37-.11-.48l-1.17.86.7-.38-.11.91c-.75.68-.98-.12-1.5.13l.37-.26c-.85.21-.88-.21-1.34-.43.14.18.35.45,0,.54-.25.03-.12-.33-.35-.45-.09.61-.71.89-1.24.57.01-.09.03-.17.07-.22-.15.09-.23.24-.46.08l.18-.67-.51.61c-.3-.2-.79.26-.72-.2l.19-.12c-.78-.11-1.57-.19-2.34-.33v-.54c-.28.72-1.23-.42-1.24.52-.39-.55-1.78.17-1.41-.84-1.52-.25-2.48.7-4.28-.1-.54-.98-2.38-.97-3.56-1.24-2.37-.07-3.93-.02-6.36-.23-1.13-1.55-3.62-.43-4.98-1.47l-.54.36c-.79-1.05-2.58-.56-3.76-1.69-.4.11-.61.12-.69.12.06.04.13.16.07.47-.34-.32-1.23-.31-.98-.89l.12-.03c.25-.58-1.28-.12-1.56-.79l.03.72-.71-.36.24-.06c-1.83.16-3.06-.38-4.04-.95-1.01-.58-1.9-1.16-3.46-1.21.67-.47-.68.08-.31-.65-.08-1.2-1.16-.45-1.77-.56-.02.03-.06.07-.12.1-.25-.2-.44-.43-.67-.64.54-.22.28-.16,0-.09-.27.06-.56.13-.1-.03-.6-1.05-1.28-1.87-1.62-2.75-.12-.22-.15-.46-.24-.69-.04-.25-.06-.5-.11-.75l.06-.71c.09-.22.15-.45.25-.66h-.27c.12-.23.17-.52.26-.8.15-.27.3-.51.59-.58.32-.06.33-.35.29-.67-.06-.32-.08-.65-.04-.75.07-.76,1.11-.49.89-.34.2-.26.25-.66.4-1.05.17-.37.42-.73.92-.87.4.26.81-.29,1.26-.8.46-.49.91-.98,1.16-.55l-.03-.08c1.46,0,2.1-1.59,3.7-1.58,0,0,0,.08-.02.16.54-1.27,1.17-2.54,1.87-3.8-.62-.93-1.25-1.85-1.91-2.76-1.21-.51-2.46-.98-3.76-1.38-2.53,1.27-5.01,2.73-7.35,4.72-2.14,1.19-4.38,2.77-6.25,5.35-.49.8-.83,1.79-1.17,2.71-.14.49-.25,1-.36,1.5-.05.25-.11.5-.15.76l-.06.77c-.03.51-.07,1.03-.06,1.54.04.5.09,1,.14,1.5.04.5.14.99.27,1.48.12.49.25.98.43,1.45.68,1.91,1.77,3.59,2.97,4.94,1.21,1.36,2.53,2.4,3.84,3.26.51.07,1.01.07,1.49.1,1.17,1.47,2.97,2.3,4.74,2.9,1.82.64,3.47,1,4.86,1.95l.26-.57c.87.25.69.6.87.78,8.07,2.49,16.66,3.51,24,5.3.66.55,2.9.55,3.42,1.04,1.27-.25,2.54-.31,3.8-.26,1.26.02,2.52.1,3.74.23l-.1.06,1.16-.05c.05.05.05.13,0,.18,1.33-.44,3.35.12,4.95.39l-.09.07c2.33.11,4.63,0,6.89-.14,2.27-.09,4.5-.42,6.73-.63,2.23-.22,4.44-.59,6.68-.8,2.24-.27,4.49-.55,6.82-.68,2.2.07,4.49-.42,6.82-1.08,2.32-.7,4.71-1.34,7.2-1.67.26.09,1.05-.05,2.11-.31.53-.13,1.12-.3,1.74-.48.61-.22,1.26-.45,1.9-.68,1.29-.47,2.56-.97,3.56-1.39,1.01-.43,1.8-.84,2-1Z"/>
      <path class="d" d="M315.17,393.35l.02.06c.26-.06.14-.13-.02-.06Z"/>
      <polygon class="d" points="296.33 404.07 296.39 404.05 296.05 403.77 296.33 404.07"/>
      <path class="d" d="M306.54,399.02c-.36.24-.33.3-.22.33.12-.1.21-.21.22-.33Z"/>
      <path class="d" d="M310.25,386.99c-.54-.32-.4-.06-.18.26.5.29.83.53.83.53-.22-.24-.4-.54-.65-.78Z"/>
      <path class="d" d="M309.45,390.94l-.23.08c.18.1.23.04.23-.08Z"/>
    </g>
    <g>
      <path class="d" d="M228.22,336.87c0,.09.05.13,0,0h0Z"/>
      <path class="d" d="M253.41,308.63s0,.04.01.07c.11.04.2.07.27.11l-.28-.18Z"/>
      <path class="d" d="M253.79,320.19s-.02.05-.02.07c.06,0,.12,0,.02-.07Z"/>
      <path class="d" d="M232.51,291.76c-.11.06-.16.11-.19.17.05-.06.11-.11.19-.17Z"/>
      <path class="d" d="M234.27,356.59s-.01-.03-.02-.04c0,.04-.01.09-.02.13l.05-.09Z"/>
      <path class="d" d="M234.04,356.42c0-.26.15.03.2.13.06-.3,0-.57-.15-.82-.15.04.02.54-.06.69Z"/>
      <path class="d" d="M245.17,392.33l-.09-.09s.06.07.09.09Z"/>
      <path class="d" d="M236.81,298.07s-.06.05-.08.08c.05-.02.07-.05.08-.08Z"/>
      <path class="d" d="M243.64,386.63h-.25c.11.03.19.02.25,0Z"/>
      <path class="d" d="M253.7,308.81l.1.07s-.06-.05-.1-.07Z"/>
      <path class="d" d="M253.89,330.75c-.08,0-.13.03-.19.06,0,.01,0,.02,0,.03l.19-.09Z"/>
      <path class="d" d="M250.11,383.04s.06-.02.09-.04l-.19-.19c.03.11.06.18.1.23Z"/>
      <path class="d" d="M252.57,345.05s.05.05.08.05c.09-.24.13-.88.14-1.71l-.3-.06.08,1.71Z"/>
      <path class="d" d="M245.18,360.48l.63-1.52c.2,4.91-.41,7.22.17,11.46l-.14-.23c-.06.31.25.55.39,1.56.07.51.1,1.21.02,2.21-.05,1.01-.21,2.32-.53,4.06h-.06c.02.24.14.23,0,.72l.3-1.21c.2.7.5,1.3.62,2.24-.05.21-.17.28-.26.31l.31,2.31-.33.75c.28.69,1.05.28.8,2.22.48-.78.46.9.72.63-.06.1-.13.33-.21.52.21,1.11.65,3.2,1.01,3.68,0,0,.15-1.14.37-2.42.21-1.29.48-2.71.72-3.32.04,1.57.12.4.27.08l-.15-.09c.06-.95.41-.98.47-1.46-.03,0-.06.02-.1.04l.05.05c-.06.05-.11.03-.15-.02-.08.02-.14-.02-.14-.27l.04.04c-.09-.38-.09-1.06-.09-1.35l.3-.03c-.31-.32-.22-1.5,0-2.7.23-1.21.53-2.44.51-2.9.33-.94-.22-2.07-.05-3.23.05-1.85.42-.93.65-1.86.16-1.16-.35.24-.38-.22l.38-1.39c.06.8.23.36.34.21,0-1.19.58-3.08-.03-3.44.28-1.61.52-1.61.55-2.3-.11.23-.21.69-.33.69.26-.64-.07-.31-.12-.04-.29-.99,1.16-5.1.49-5.31h.12c-.49-.24-.97.12-1.23-.57l.23-.46-.2-.7c.17-.46.3-.23.36-.23-.2-1.13.11-2.71.21-4.07l-1.38,1.42c.34-1.15,1.02-3.22.6-3.46l.47-.68c.93-2.29-.33-1.63-.04-2.55l.52-1.15-.04,1.16c.28-1.15.46-1.61.8-2.53h-.01c-.02.05-.05.09-.08.1v-.16c-.25-.15-.4-.76-.36-1.58.1-1.16-.23-2.08.32-3.93l-.49-.47.33-1.39h.4c-.05,1.38.05,3.96.02,5.71l.18.04c.03-1.04-.11-2.23-.06-2.92.09-.33.52-1.19.78-.56l-.38-.65c.03-3.49,0-3.51.49-7.17l-.2.32c-.11-.73-.22-1.45.11-1.65.04-2.2.28-4.49.74-5.94l-.48-.3c0-.47.69-1.19.03-1.4l-.24-.99c.01-.64-.27-1.02-.03-1.76h0s.03-.1.05-.14c-.01,0-.03,0-.04,0,.13-1.46-.41.04-.25-1.64.3-.55-.64-.55-.59-1.36l.62-.86c.28-1.5-.38-1.7-.62-3.82.13-1.04.65-1.6,1.23-.98-.72-.87-.45-.38-.87-1.59.23-.22.3-.1.56.15.18-1.14-.29-.65-.38-1.48-.51-.18-1.31-.36-1.38-.62l-.1.34c-.38-.83-.64-1.76-.56-2.8h.24s-.28-1.05-.28-1.05l.29-.12c-.11-.5-.22-1.01-.35-1.54l-.04.23c-.1-.36-.45-1.57-.48-2.33l.17-.02c0-1.09-.34-2.07-.86-3.05-.53-.98-1.23-1.97-2.14-3.13l.52.11c-.36-1.03-.57.09-1.23-.94l.27-.34c-1.19-.39-.95-1.08-1.51-1.75,0,.23,0,.45-.02.67-.38-.31-.77-.64-1.19-.91-.69-.46-.86-.73-.8-.91.06-.19.35-.28.53-.35-.43-.05-.86-.03-1.27-.03l-.06-.55c-.51.15-.7.08-.97-.05-.27-.14-.63-.29-1.38-.24-.1-.2.29-.26-.21-.41-.42.09-.83.19-1.23.29-.39.12-.77.26-1.14.39.45-.12.91-.27,1.39-.34l-.18.72c-1.36.57-1.87.02-2.8.4.2-.12.4-.24.62-.33-1.53.45-1.65.23-2.58.34.31.04.77.11.2.39-.42.2-.32-.15-.76-.07.06.49-.82,1.12-1.78,1.44-.02-.07-.04-.13,0-.2-.18.2-.24.36-.67.51l-.07-.6c-.16.31-.3.62-.44.92-.57.21-.95,1.08-1.13.74l.19-.3c-1.2.95-2.15,2.01-2.98,3.15l-.39-.19c.22.65-1.38,1.89-.65,2.12-.76.52-.93,2.86-1.54,2.15-.49,1.25-.55,2.28-.64,3.33-.08,1.06-.17,2.14-.51,3.61-.83,1.02-.69,3.92-.67,5.77.46,3.62,1.06,5.86,1.92,9.32-.57,2.31,1.44,5.11,1.46,7.4l.53.5c-.23,1.6,1.09,3.58,1.04,5.72.3.44.42.68.46.79,0-.1.03-.25.26-.36-.02.61.51,1.71,0,1.75l-.09-.13c-.5.05.7,1.66.45,2.41l.42-.49.21,1.1-.18-.26c2.43,4.35,1.38,6.91,3.66,10.99-.72-.42.54.78-.06,1.01-.46,1.32.75,1.99,1.21,2.84.03,0,.07,0,.13.03l.38,1.6c-1.04-.72.97.95.06.28.6,4.28,2.74,9.48,3.86,14.31l.14-.27c.31,1.22.99,2.64.95,3.65-.05,1.01,1.09,1.85,1.23,2.2.64.9.23,2.01.13,1.57.41,1.04,1.41,1.84,1.55,3.42-.5.7,1.84,3.86,1.12,4.12h.07c.04,2.05,1.46,3.59,1.6,5.77,0,0-.07-.02-.14-.08l3.47,3.5,2.11-1.92.92-4.2-3.33-9.65-1.52-8.04-5.76-18.93-.94-1.2c-.09-4.01-2.55-8.5-2.96-12.73l-.5.05c-.34-1.13-.02-1.13-.01-1.44-1.48-5.29-3.21-10.61-4.36-15.68-.56-2.54-.99-5.05-1.15-7.48-.16-2.41-.1-4.82.29-6.91.2-.4.35-1.2.54-1.95.18-.76.43-1.43.67-1.66.13-2.56,1.62-4.82,3.34-5.69l-.04.09c.25-.2.53-.36.81-.54.05.02.08.08.07.12.41-.42,1.12-.64,1.82-.64.7,0,1.34.21,1.75.42l-.07.04c.33.08.61.21.85.37.25.13.51.38.75.64.49.54.97,1.38,1.35,2.45.39,1.06.7,2.31.96,3.68.25,1.4.49,2.8.74,4.2.87,5.62,1.29,11.35,1.06,17.3-.68,5.52.28,12.01-.57,18.45-.53,1.14-.55,14.29-.27,15.49Z"/>
      <path class="d" d="M246.32,380.07v-.05c-.22.02-.13.09,0,.05Z"/>
      <polygon class="d" points="251.74 352.83 251.73 352.91 252.04 352.6 251.74 352.83"/>
      <path class="d" d="M251.77,370.04c.05-.77,0-.81-.09-.7,0,.28.02.52.09.7Z"/>
      <path class="d" d="M247.37,386.52c.04.42.14.24.25-.02-.08-.42-.13-.71-.13-.71-.02.24-.1.49-.12.73Z"/>
      <path class="d" d="M249.98,384.51l.18.11c-.07-.23-.13-.22-.18-.11Z"/>
    </g>
    <g>
      <path class="d" d="M272.24,335.16c-.05.08-.03.13,0,0h0Z"/>
      <path class="d" d="M264.89,309.31s0,.04-.01.06c.09.07.16.13.22.18l-.2-.25Z"/>
      <path class="d" d="M262.47,319.95s-.02.04-.03.06c.06,0,.12.02.03-.06Z"/>
      <path class="d" d="M274.61,298.1c.05.04.09.05.13.04-.04,0-.09-.01-.13-.04Z"/>
      <path class="d" d="M265.67,354.62s0-.03,0-.05c-.03.03-.06.06-.1.09l.09-.04Z"/>
      <path class="d" d="M265.59,354.35c.16-.21.11.11.09.22.22-.21.33-.46.37-.74-.15-.05-.31.45-.46.52Z"/>
      <path class="d" d="M252.79,389.62l-.02-.13s0,.09.02.13Z"/>
      <path class="d" d="M277.51,291.01c.08.02.15.06.22.08-.1-.06-.17-.08-.22-.08Z"/>
      <path class="d" d="M255.06,384.18l-.21-.15c.07.09.14.13.21.15Z"/>
      <path class="d" d="M265.09,309.55l.08.1s-.05-.06-.08-.1Z"/>
      <path class="d" d="M261.26,330.08c-.08,0-.14.02-.19.04,0,.01,0,.02,0,.03l.19-.07Z"/>
      <path class="d" d="M253.11,381.83s.06,0,.1-.01l-.14-.24c0,.11.01.19.04.25Z"/>
      <path class="d" d="M259.33,344.12s.05.05.08.05c.09-.24.15-.88.18-1.7l-.3-.07.04,1.71Z"/>
      <path class="d" d="M251.48,359.23l.7-1.46c-.03,4.84-.81,7.02-.73,11.14l-.11-.24c-.1.29.18.55.19,1.54,0,.49-.06,1.17-.26,2.12-.24.94-.63,2.15-1.26,3.71h-.06c-.02.22.1.23-.12.66l.52-1.07c.05.69.28,1.33.17,2.22-.1.18-.23.22-.33.23l-.27,2.19-.5.6c.09.7.98.55.18,2.24.7-.56.15.94.48.78-.09.08-.24.26-.37.4-.16,1.06-.42,3.08-.24,3.64,0,0,.52-.95,1.13-2.06.62-1.1,1.35-2.33,1.76-2.85-.46,1.48-.01.41.24.15l-.12-.13c.29-.89.65-.82.83-1.26-.03,0-.07,0-.1,0l.04.07c-.07.03-.11,0-.14-.06-.08,0-.13-.06-.07-.3l.03.05c.01-.39.18-1.04.26-1.33l.3.04c-.23-.39.2-1.49.66-2.62.45-1.14.98-2.3,1.05-2.76.5-.88.2-2.09.5-3.23.29-1.84.54-.88.89-1.78.31-1.14-.37.2-.35-.27l.56-1.35c-.05.81.18.39.31.25.19-1.2.87-3.06.31-3.48.42-1.61.66-1.59.75-2.29-.13.23-.27.68-.39.68.32-.63-.04-.32-.12-.05-.16-1.01,1.44-5.09.81-5.34h.12c-.48-.25-.98.09-1.2-.62l.25-.45-.17-.71c.19-.46.3-.22.36-.22-.16-1.15.19-2.71.33-4.09l-1.42,1.38c.38-1.14,1.11-3.2.69-3.45l.49-.67c.98-2.28-.29-1.64.01-2.55l.55-1.14-.07,1.16c.31-1.15.49-1.6.86-2.51h-.01c-.02.05-.05.09-.08.1v-.16c-.24-.15-.38-.76-.32-1.58.13-1.15-.19-2.08.44-3.89l-.47-.49.38-1.37.4.02c-.1,1.35-.11,3.91-.17,5.66l.18.04c.05-1.04-.06-2.22.02-2.9.1-.33.56-1.15.8-.52l-.35-.66c.15-3.45.14-3.47.85-7.01l-.22.29c-.07-.72-.13-1.43.21-1.61.27-2.13.7-4.32,1.35-5.64l-.43-.35c.08-.45.86-1.03.23-1.33l-.1-.98c.11-.61-.12-1.01.23-1.68h0s0,0,0,0c.02-.04.05-.08.07-.12-.01,0-.03,0-.04,0,.39-1.35-.43-.04.07-1.58.41-.46-.51-.64-.29-1.4l.78-.67c.59-1.32-.07-1.67.32-3.66.42-.91,1.07-1.26,1.45-.54-.45-.98-.32-.47-.4-1.67.28-.13.31,0,.49.3.49-.96-.12-.67.06-1.44-.42-.32-1.11-.73-1.08-.99l-.22.26c-.06-.86.03-1.78.48-2.67l.23.09.11-1.03h.31c.08-.48.16-.96.25-1.42l-.13.17c.04-.34.24-1.4.58-1.9l.16.08c.51-.69.73-1.34.94-2.01.21-.66.41-1.35.88-1.91l.14.37c.57-.11-.32-.47.21-.75l.31.3c-.02-.72.55-.29.86-.22-.13-.14-.27-.29-.41-.42.19-.04.35-.12.54-.15.63-.05.55.54.61.84.04-.19.11-.33.19-.52l.18.46c.14-.59.23.02.68-.3.04.18-.06.3.09.37l.42-.34c.15-.1.32-.19.5-.29-.21.09-.41.14-.58.25l.11-.72c.71-.48.87.19,1.37.13-.13.04-.25.07-.38.12.8.03.75.37,1.09.67-.07-.17-.2-.43.15-.41.24.07.01.29.18.46.25-.42.94-.36,1.26.15-.05.05-.09.1-.15.12.15.02.3-.05.41.19l-.43.34c.21-.05.43-.09.66-.12.14.29.7.33.43.56l-.2-.04c.46.51.91,1.19,1.27,1.92l-.36.24c.66-.09.37,1.26,1.01.9-.17.56.9,1.75,0,1.7.34,1.63,1.3,2.55.96,4.89-.68.81-.56,3.11-.83,4.65-.08,3.04-.26,5.08-.88,8.27-1.46,1.61-1.08,4.81-2.32,6.69l.18.69c-1.06,1.16-1.08,3.5-2.35,5.23,0,.53-.04.8-.07.91.05-.08.17-.19.42-.15-.36.49-.55,1.68-1,1.43v-.16c-.44-.25-.38,1.75-1.01,2.22l.62-.16-.46,1.01v-.31c-.53,4.93-2.86,6.4-3.42,11.01-.34-.76-.02.94-.64.78-1.15.79-.58,2.04-.7,2.99.03.01.06.03.09.1l-.64,1.51c-.41-1.2.21,1.34-.11.26-2.06,3.79-3.45,9.21-5.47,13.73l.27-.13c-.48,1.16-.8,2.7-1.45,3.47-.65.77-.25,2.13-.35,2.49-.04,1.1-1.04,1.73-.85,1.33-.31,1.08,0,2.32-.85,3.65-.83.25-.89,4.18-1.62,3.95l.05.04c-1.22,1.66-1.03,3.73-2.25,5.55,0,0-.04-.06-.06-.14l.61,4.89,2.84-.23,3.3-2.77,3.25-9.69,3.68-7.32,6.76-18.68-.05-1.53c2.31-3.31,2.95-8.41,5.06-12.12l-.44-.25c.37-1.13.64-.95.82-1.19,1.79-5.22,3.59-10.51,5.09-16.01,1.47-5.5,2.53-11.07,2.71-16.66.16-.55.13-1.66.03-2.76-.08-1.1-.28-2.19-.2-2.68-.73-1.86-1.56-3.78-2.7-5.6-.58-.92-1.17-1.77-1.95-2.64-.76-.86-1.6-1.62-2.49-2.26l.17.05c-.58-.38-1.18-.71-1.8-1.02-.06-.07-.04-.13.04-.14-1.14-.35-2.5-.91-4.07-1.3-1.56-.39-3.34-.58-4.97-.35l.18-.09c-2.35.36-4.68,1.66-6.24,3.28-1.61,1.63-2.59,3.46-3.28,5.16-.69,1.71-1.11,3.34-1.45,4.86-.31,1.5-.62,2.99-.93,4.48-1.13,5.97-1.92,11.93-2.88,18.04-1.4,5.66-.65,12.36-1.66,18.8-.56,1.19-.83,14.22-.73,15.34Z"/>
      <path class="d" d="M250.19,378.09v-.05c-.2-.03-.14.05,0,.05Z"/>
      <polygon class="d" points="258.32 351.88 258.31 351.96 258.63 351.66 258.32 351.88"/>
      <path class="d" d="M257.25,369.25c.15-.78.1-.82,0-.71-.04.28-.05.53,0,.71Z"/>
      <path class="d" d="M249.48,384.25c-.1.39.05.26.24.06.06-.4.11-.68.11-.68-.1.21-.25.4-.35.62Z"/>
      <path class="d" d="M252.61,383.2l.14.16c0-.24-.06-.25-.14-.16Z"/>
    </g>
    <g>
      <path class="d" d="M237.62,447.53s-.04,0,0,0h0Z"/>
      <path class="d" d="M259.55,447.32s.01,0,.02,0c0-.13.01-.24.01-.32l-.04.33Z"/>
      <path class="d" d="M263.23,447.65s.02.02.03.03c-.01-.07-.02-.15-.03-.03Z"/>
      <path class="d" d="M250.93,449.2s-.05.02-.06.06c.02-.03.03-.05.06-.06Z"/>
      <path class="d" d="M232.34,445.31s0,0,.02,0c0-.03.01-.05.02-.08l-.04.08Z"/>
      <path class="d" d="M232.53,445.19c0,.12-.13.13-.17.13-.05.18,0,.24.11.23.12-.15-.01-.23.05-.36Z"/>
      <path class="d" d="M226.95,437.17l.08.02s-.05-.02-.08-.02Z"/>
      <path class="d" d="M251.8,458.72s-.04.03-.06.05c.03,0,.05-.02.06-.05Z"/>
      <path class="d" d="M227.01,438.7l.3-.06c-.13.02-.22.04-.3.06Z"/>
      <path class="d" d="M259.58,446.99v-.12s0,.07,0,.12Z"/>
      <path class="d" d="M266.35,447.2c.03.09.05.16.08.22h0s-.08-.22-.08-.22Z"/>
      <path class="d" d="M279.99,439.65s-.08,0-.12,0l.21.09s-.05-.07-.09-.09Z"/>
      <path class="d" d="M270.65,447s-.02-.07-.04-.1c-.11-.06-.28.01-.49.12l.15.35c.13-.11.25-.24.37-.36Z"/>
      <path class="d" d="M280.56,450.37c-.35.01-.7,0-1.05,0,.66-.92,1.24-1.49,1.77-2.09.52-.6.99-1.23,1.19-2.26l.09.17c.14-.09-.13-.36-.05-.85.07-.52.52-1.11,2-2.5l.07.02c.02-.12-.13-.16.13-.35l-.61.47c-.09-.4-.36-.78-.32-1.24.1-.08.26-.08.38-.07.02-.39.05-.78.06-1.17l.52-.32c-.25-.4-1.27-.28-.67-1.21-.71.35-.44-.46-.81-.34.09-.05.22-.16.34-.25-.07-.55-.45-1.55-.84-1.72,0,0-.3.59-.71,1.17-.42.59-1,1.15-1.38,1.36.19-.6-.09-.15-.33-.05l.18.04c-.2.35-.65.31-.79.47.04,0,.08,0,.13,0l-.06-.03c.08,0,.14,0,.18.03.1,0,.17.03.14.12l-.05-.02c.06.15-.03.39-.09.48l-.38-.05c.33.17,0,.55-.45.86-.47.31-1,.54-1.07.67-.55.11-.1.66-.49.9-.35.47-.61.03-1.03.12-.37.18.43.15.38.28l-.66.11c.07-.23-.19-.23-.34-.26-.21.28-1.09.3-.51.82-.57.16-.81-.04-.95.09.15.04.32.01.44.1-.37-.06.01.12.12.1.05.22-.45.29-.88.34-.41.07-.79.1-.5.42l-.11-.11c.4.48.9.83,1,1.22l-.29-.1c.01.11.03.23.03.34-.24-.05-.3-.22-.36-.28-.05.44-.64.5-1.01.67.45.36.92.71,1.41,1.04-.56-.05-1.53-.31-1.28.17l-.5-.35c-1.16-.53-.16.66-.58.53l-.61-.36.3-.16c-.44-.09-.67-.21-1.09-.45v.02s.06.04.08.07l-.03.04c.11.29.05.57-.19.65-.35.06-.42.61-1.19.21l.1.64c-.18-.06-.36-.13-.53-.2l-.17-.47c.4-.11,1.02-.58,1.46-.82l-.09-.21c-.27.12-.48.48-.69.5-.13-.05-.55-.45-.52-.83l.02.52c-.9.41-.92.44-2.09.19l.16.22c-.16.2-.33.4-.49.02-.64.09-1.38-.08-1.91-.62l.02.6c-.15,0-.52-.85-.43-.02l-.25.31c-.2-.01-.26.34-.54.04h0s0,0,0,0c-.02-.02-.03-.04-.05-.06v.05c-.47-.19.1.53-.46.27-.23-.39-.07.77-.35.67l-.37-.81c-.53-.43-.48.43-1.17.52-.36-.26-.6-.97-.46-1.63-.21.81-.07.52-.43.94-.1-.31-.06-.39,0-.68-.39-.34-.19.31-.45.32-.02.61,0,1.58-.09,1.62l.12.18c-.26.35-.56.53-.93.26l-.02-.3-.35.19-.06-.39-.51.17.08.1c-.12.06-.51.23-.75.05v-.22c-.72-.61-1.17.31-1.91.45l.06-.45c-.29-.41-.01.68-.34.49l-.06-.54c-.21.73-.36-.12-.56-.38l.14.7-.36-.12c-.4-.2-.3-.88-.28-1.25l-.21.58-.1-.62c-.13.74-.19-.1-.49.31-.04-.23.03-.38-.09-.47l-.48.92.3-.41.02.92c-.29.72-.47-.07-.69.2l.15-.28c-.38.24-.42-.14-.65-.33.08.17.2.41.05.54-.11.06-.08-.32-.2-.41,0,.61-.26.95-.53.68,0-.09,0-.17.01-.23-.06.1-.09.26-.2.12l.03-.68-.19.65c-.15-.18-.34.32-.34-.14l.08-.14-1.09-.13-.03-.54c-.09.75-.58-.27-.53.66-.21-.5-.79.36-.68-.69-.68-.08-1.08.93-1.9.39-.26-.9-1.05-.66-1.56-.79-1.02.28-1.71.55-2.76.66-.37-1.32-1.57.14-2.05-.71l-.29.43c-.21-.85-1.1-.13-1.42-1.04-.21.16-.29.2-.33.2.02.03.02.13-.07.43-.08-.27-.48-.13-.23-.7l.06-.05c.25-.58-.55.11-.51-.47l-.18.66-.23-.23.13-.08c-.45.2-.78.21-1.04.13-.25-.1-.43-.29-.59-.49-.35-.37-.6-.8-1.52-.57.55-.5-.42.17.02-.5.34-1-.6-.16-.98-.12-.02.03-.06.07-.11.1l-.3-.37c.86-.6-.8.43-.05-.07-.12-.33-.29-.61-.5-.88-.21-.26-.48-.48-.72-.72-.51-.46-1.05-.97-1.27-1.61l-.18.2c-.13-.31-.66-.48-.41-.92.25-.41-.84-.16-.93-.24-.54-.06.18-.68.18-.55-.21-.21-1.23-.11-.98-.66.38-.21.1-.4-.18-.6-.28-.2-.49-.41-.03-.53h-.08c.28-.32.09-.52-.07-.76-.15-.23-.32-.49-.05-.79,0,0,.07,0,.14.02-1-.29-1.97-.7-2.96-1.22-1.07.09-2.15.23-3.22.39-.86.53-1.76,1.15-2.54,1.85.33,1.67.96,3.21,1.66,4.63.07.64.18,1.29.29,1.95.15.63.3,1.28.48,1.92,1.75,2.58,3.89,4.69,6.25,6.37l.93-.22c.29,1.02,1.15,1.51,2.03,1.94.9.4,1.82.73,2.48,1.51l.29-.56c.47.18.29.52.37.67,4.54,1.7,9.07,1.42,12.82,2.35.36.43,1.48.21,1.76.64,1.24-.76,2.49-.79,3.69-.77l-.04.07.55-.15c.03.05.03.12.02.17.6-.59,1.61-.1,2.38.07l-.04.07c2.23-.11,4.21-.57,6.3-.94,2.11-.39,4.26-.71,6.73-.79,1.22.26,2.44-.15,3.68-.69,1.25-.55,2.49-1.2,3.98-1.5.35.18,1.95-.63,3.27-1.76,1.34-1.1,2.38-2.51,2.45-2.81Z"/>
      <path class="d" d="M284.18,441.66v.03c.26.05.17,0,0-.03Z"/>
      <polygon class="d" points="272.93 446.47 272.95 446.46 272.66 446.22 272.93 446.47"/>
      <path class="d" d="M275.98,442.62c-.18.15-.12.19-.02.21.05-.06.07-.13.02-.21Z"/>
      <path class="d" d="M283.93,438.37c.01-.21-.14-.12-.31,0,.03.21.06.35.06.35.06-.12.2-.24.26-.36Z"/>
      <path class="d" d="M280.36,439.14l-.21-.05c.05.09.13.09.21.05Z"/>
    </g>
    <g>
      <path class="d" d="M416.94,243.03s-.03.04,0,0h0Z"/>
      <path class="d" d="M434.38,235.98s0,0,.02-.01c-.05-.19-.1-.36-.13-.49l.12.5Z"/>
      <path class="d" d="M437.64,236.13s.02.03.04.04c-.04-.11-.08-.23-.04-.04Z"/>
      <path class="d" d="M428.4,240s-.03.04-.02.11c0-.05,0-.09.02-.11Z"/>
      <path class="d" d="M411.85,245.5s0-.01,0-.02c-.02-.04-.04-.06-.06-.11l.05.13Z"/>
      <path class="d" d="M411.82,245.15c.1.13.05.28.03.33.14.24.22.25.26.11-.08-.3-.2-.22-.29-.43Z"/>
      <path class="d" d="M402.2,248.64v-.13s0,.08,0,.13Z"/>
      <path class="d" d="M433.4,254.31s-.02.05-.02.08c.03,0,.03-.04.02-.08Z"/>
      <path class="d" d="M403.83,248.6l-.09-.48c.03.2.06.35.09.48Z"/>
      <path class="d" d="M434.27,235.49l-.04-.19s.03.11.04.19Z"/>
      <path class="d" d="M440.37,235.44c.05.14.1.25.15.34h0s-.16-.34-.16-.34Z"/>
      <path class="d" d="M456.56,237.2c-.03-.05-.06-.11-.08-.17l.09.34s.01-.1,0-.17Z"/>
      <path class="d" d="M444.73,236.03c-.02-.05-.03-.1-.05-.16-.12-.13-.3-.1-.5,0l.21.56.34-.4Z"/>
      <path class="d" d="M454.03,247.38l-.86-.95c1.07-1.04,2.13-.18,2.84-1.54l.04.27c.27.19-.72-2.34,2.35-.05l.05.11c.05-.05-.04-.27.21-.03l-.6-.55c.06-.36-.01-.96.19-1.14.1.1.22.32.3.49l.51-.45.5.63c0-.47-.74-1.94.11-1.31-.65-.97-.04-.73-.34-1.24.08.12.22.29.35.45.23-.25.64-.78.53-1.37,0,0-2.1-1.7-2.89-2.69.52.11.05-.17-.19-.49l.09.27c-.35-.15-.64-.81-.84-.94.03.05.06.12.09.18l-.02-.1c.06.11.09.2.11.27.07.14.1.26.02.25l-.02-.07c-.06.14-.27.11-.37.1l-.24-.55c.29,1.13-1.88-1.08-2.12-1.02-.54-.6-.45.4-.9.17-.54.02-.58-.71-1.02-1.09-.44-.22.34.62.23.71l-.68-.62c.17-.15-.08-.44-.21-.64-.34.03-1.25-.78-.87.37-.63-.36-.82-.8-1.01-.78.14.18.34.31.43.54-.37-.42-.03.15.09.23-.05.59-2.14-1.49-1.68-.25l-.09-.22c.32.93.78,1.78.81,2.35l-.28-.36v.46c-.25-.25-.3-.51-.34-.62-.11.54-.72.2-1.12.22l1.38,2.33c-.53-.45-1.53-1.4-1.27-.58l-.51-.76c-1.23-1.36-.13.86-.56.47l-.66-.8.3-.1c-.48-.35-.72-.6-1.19-1.1v.03s.07.07.09.12l-.03.04c.15.47.12.84-.1.89-.34-.01-.31.75-1.16-.03l.25.98-.57-.42-.29-.75c.36-.09.9-.63,1.33-.84l-.13-.34c-.26.1-.43.55-.63.55-.14-.11-.66-.8-.7-1.37l.12.79c-.84.43-.84.46-2.07-.03l.22.35c-.1.29-.2.57-.48-.02-.6.08-1.34-.17-2.05-.98l.25.91c-.13,0-.8-1.27-.4-.02l-.1.48c-.18,0-.09.53-.46.09h0s0,0,0,0c-.02-.03-.05-.06-.07-.09.01.03.02.05.03.07-.5-.26.3.79-.3.43-.36-.58.27,1.18,0,1.05l-.67-1.2c-.63-.6-.23.7-.75.9-.42-.36-.93-1.4-1.11-2.43.19,1.25.17.8.07,1.47-.22-.46-.22-.58-.31-1.03-.47-.46-.01.49-.23.54.26.93.71,2.39.66,2.47l.18.25c-.05.56-.21.87-.62.5l-.15-.46-.19.33-.22-.58-.32.32.11.14c-.06.11-.29.41-.57.17l-.11-.33c-.83-.85-.76.62-1.29.92l-.15-.69c-.42-.59.29,1.04-.05.79l-.29-.81c.16,1.14-.34-.14-.61-.5l.43,1.05-.34-.14c-.41-.26-.63-1.29-.78-1.86l.09.91-.35-.93c.23,1.14-.2-.13-.25.54-.14-.35-.14-.58-.28-.7l.03,1.47.05-.67.43,1.39c.09,1.13-.4-.03-.46.41v-.45c-.2.44-.41-.15-.68-.39.14.24.34.59.28.81-.07.11-.21-.47-.34-.59.28.93.22,1.49-.12,1.12-.04-.13-.08-.26-.09-.35,0,.17.05.41-.11.22l-.28-1.04.15,1.03c-.2-.24-.13.55-.34-.14v-.23s-.94.03-.94.03l-.27-.82c.28,1.16-.6-.28-.12,1.12-.4-.72-.46.75-.87-.87-.6.05-.42,1.69-1.34,1.12-.66-1.28-1.19-.64-1.67-.65-.68.82-1.08,1.51-1.84,2.2-1.08-1.74-1.13,1.04-2.01.13l.06.8c-.72-1.09-.88.54-1.75-.48-.04.37-.08.49-.1.53.03.03.11.16.26.64-.25-.3-.44.21-.68-.75v-.11c-.23-.97-.33.58-.73-.21l.38,1-.34-.09.02-.22c-.64,2.64-2.08-.49-2.72,1.91-.14-1.17-.08.65-.42-.57-.7-1.47-.47.48-.61.96.02.06.03.13.04.23l-.47-.04c-.14-1.63.02,1.37-.08-.01-1.41-.89-2.58.66-4.01.44l.15.39c-.35,0-.65.58-1.05,0-.4-.58-.31,1.15-.39,1.24-.12.76-.68-.56-.55-.52-.25.26-.2,1.76-.75,1.24-.44-1.29-.83,1.55-1.18.06l.02.13c-.76-.94-.86.96-1.64.13,0,0,0-.11-.02-.22l-.19,4.81,1.4,4.94,1.91,3.85,2.65-1.51,2.63,1.06c1.8-.61,3.59-1.24,5.37-1.89l.1-1.22c1.59,1.68,2.37-.93,3.9.14l-.24-.97c.31-.15.45.45.58.6,2.98-1.04,5.68-3.23,8.75-2.86.46.55,1.13-.07,1.54.53.51-1.44,1.43-1.72,2.35-1.88v.11s.35-.32.35-.32c.04.07.08.18.09.26.19-.99,1.19-.41,1.87-.26v.11c3.39-.94,5.79-3.77,9.51-3.68,2.09.95,3.03-1.81,5.24-1.24.69.81,3.88-1.31,4.01-1.86Z"/>
      <path class="d" d="M458.56,244h-.01c.17.39.12.24.01,0Z"/>
      <polygon class="d" points="447.16 236.37 447.18 236.37 446.88 235.85 447.16 236.37"/>
      <path class="d" d="M451.38,234.23c-.25-.04-.22.06-.12.2.08,0,.13-.06.12-.2Z"/>
      <path class="d" d="M459.89,242.53c.12-.02-.02-.23-.2-.45-.09.09-.15.15-.15.15.1.06.25.24.35.3Z"/>
      <path class="d" d="M457.14,237.52l-.11-.33c-.03.1.03.22.11.33Z"/>
    </g>
    <g>
      <path class="d" d="M408.29,170.45s-.01.04,0,0h0Z"/>
      <path class="d" d="M421.48,161.16s0,0,.01-.01c-.09-.18-.17-.33-.22-.45l.21.46Z"/>
      <path class="d" d="M424.34,160.95s.03.02.04.04c-.06-.1-.12-.21-.04-.04Z"/>
      <path class="d" d="M417.25,165.75s-.01.05.01.11c-.01-.04-.02-.08-.01-.11Z"/>
      <path class="d" d="M404.72,173.74s0-.01,0-.02c-.03-.03-.05-.05-.08-.09l.08.11Z"/>
      <path class="d" d="M404.59,173.42c.12.1.13.25.13.3.19.2.26.19.25.05-.15-.27-.24-.17-.38-.35Z"/>
      <path class="d" d="M397.7,178.78l-.04-.12s.02.08.04.12Z"/>
      <path class="d" d="M425.04,178.75s0,.05,0,.08c.02,0,.01-.04,0-.08Z"/>
      <path class="d" d="M399.03,178.37l-.23-.43c.09.18.16.32.23.43Z"/>
      <path class="d" d="M421.27,160.69l-.08-.17s.05.1.08.17Z"/>
      <path class="d" d="M426.57,160.03c.08.13.14.23.2.32,0,0,0,0,0,0l-.2-.32Z"/>
      <path class="d" d="M440.89,160.76c-.03-.05-.06-.11-.1-.16l.13.33s0-.09-.03-.16Z"/>
      <path class="d" d="M430.47,160.23c-.03-.05-.05-.1-.08-.15-.13-.11-.28-.07-.43.04l.29.53.22-.41Z"/>
      <path class="d" d="M440.58,170.59l-.91-.87c.69-1.04,1.75-.25,2.1-1.58l.09.25c.26.17-1.03-2.22,1.97-.12l.06.1s-.09-.25.17-.03l-.6-.51c-.01-.34-.18-.91-.04-1.09.11.09.24.3.34.47l.35-.44.53.6c-.07-.45-.96-1.84-.13-1.26-.71-.91-.16-.7-.5-1.18.09.11.24.27.37.42.15-.24.41-.76.22-1.33,0,0-2.06-1.59-2.91-2.52.47.09.01-.17-.24-.47l.12.26c-.33-.13-.69-.76-.88-.88.03.05.07.11.11.17l-.04-.09c.07.11.11.18.14.25.08.13.13.24.06.23l-.03-.07c-.03.14-.22.11-.3.1l-.3-.52c.44,1.07-1.8-.99-2-.91-.57-.55-.32.4-.74.21-.47.04-.62-.66-1.07-1-.42-.19.4.58.33.67l-.7-.57c.13-.16-.14-.42-.29-.61-.29.05-1.22-.69-.69.39-.61-.31-.85-.73-1.02-.7.16.16.35.28.47.49-.39-.39,0,.15.12.22.06.57-2.12-1.31-1.5-.14l-.12-.21c.45.88,1,1.66,1.13,2.22l-.31-.33.07.45c-.25-.22-.34-.48-.4-.58,0,.52-.59.24-.92.28l1.63,2.16c-.54-.4-1.59-1.25-1.2-.48l-.59-.7c-1.32-1.22.05.83-.39.49l-.72-.72.24-.12c-.48-.3-.73-.52-1.24-.97,0,0,0,.02.01.02.03.03.06.06.1.11l-.02.04c.22.44.26.8.08.87-.3.01-.12.75-1.01.06l.41.92-.58-.36-.4-.69c.3-.12.66-.67.98-.91l-.18-.32c-.21.12-.27.56-.44.57-.15-.1-.73-.72-.88-1.26l.26.75c-.65.48-.63.51-1.81.14l.26.31c-.03.29-.05.57-.42.03-.5.14-1.2-.04-1.99-.76l.41.85c-.12,0-.97-1.15-.35.02v.47c-.15,0,.04.52-.37.13,0,0,0,0,0,0,0,0,0,0,0,0-.03-.02-.05-.05-.08-.08.01.02.03.05.04.07-.49-.2.42.73-.17.45-.44-.52.48,1.1.22,1.01l-.83-1.08c-.67-.51-.05.7-.46.94-.44-.3-1.11-1.25-1.49-2.21.44,1.18.32.75.38,1.4-.29-.42-.32-.53-.5-.96-.51-.39.1.47-.08.54.43.86,1.14,2.21,1.12,2.3l.21.22c.09.54.02.86-.42.55l-.23-.42-.09.33-.32-.53-.21.34.12.12c-.03.11-.16.43-.45.23l-.17-.3c-.91-.71-.52.68-.9,1.03l-.29-.64c-.5-.52.5.96.15.76l-.44-.74c.41,1.07-.32-.09-.64-.4l.61.95-.32-.09c-.41-.19-.85-1.15-1.11-1.68l.29.86-.53-.84c.47,1.07-.2-.1-.09.55-.2-.32-.26-.53-.41-.63l.38,1.4-.12-.65.7,1.27c.35,1.07-.35.02-.3.46l-.12-.43c-.06.44-.38-.09-.68-.29.18.21.44.52.44.74-.03.11-.29-.42-.44-.52.47.85.55,1.39.17,1.08-.07-.12-.13-.24-.16-.32.04.16.14.39-.04.22l-.5-.96.38.96c-.23-.2.03.55-.32-.09l-.06-.22-.79.16-.44-.74c.53,1.06-.59-.18.17,1.09-.53-.63-.21.78-.97-.71-.5.14.07,1.67-.87,1.27-.9-1.12-1.18-.42-1.6-.36-.37.9-.53,1.6-.98,2.39-1.4-1.48-.68,1.18-1.68.46l.27.75c-.92-.91-.6.67-1.62-.15.07.36.07.48.06.52.04.02.14.13.4.56-.29-.24-.31.28-.79-.59l-.02-.11c-.48-.87-.12.61-.68-.06l.6.88-.31-.03-.04-.21c.22,2.61-1.91-.07-1.73,2.32-.46-1.08.13.63-.52-.46-1.03-1.25-.25.54-.22,1.02.03.05.07.12.1.21l-.4.06c-.61-1.51.43,1.29-.07,0-1.45-.55-1.95,1.15-3.22,1.24l.25.33c-.29.08-.35.69-.87.23-.52-.46.11,1.15.07,1.25.15.74-.75-.38-.62-.37-.12.3.4,1.69-.22,1.32-.79-1.12-.17,1.64-.95.32l.06.11c-.94-.71-.39,1.1-1.3.5,0,0-.05-.1-.09-.2l1.46,4.54,2.81,4.3,2.83,3.17,1.58-1.96,2.44.47,3.68-2.76-.3-1.17c1.79,1.3,1.62-1.29,3.18-.52l-.48-.87c.21-.19.5.36.64.47,2.08-1.46,3.68-3.91,6.28-3.96.52.46.9-.21,1.4.31.03-1.43.72-1.81,1.42-2.07l.03.11.21-.34c.05.06.11.16.14.24-.1-.96.87-.51,1.47-.45l.03.11c2.53-1.25,3.86-4.16,6.97-4.35,1.94.76,2.12-1.94,4.09-1.51.73.72,2.97-1.43,2.97-1.96Z"/>
      <path class="d" d="M443.75,167.22h0c.21.37.15.23,0,0Z"/>
      <path class="d" d="M432.63,160.39s.02,0,.02,0l-.36-.48.34.48Z"/>
      <path class="d" d="M435.91,158.1c-.22-.02-.18.07-.07.2.07-.01.1-.07.07-.2Z"/>
      <path class="d" d="M444.62,165.8c.1-.02-.06-.22-.25-.43-.06.09-.1.15-.1.15.1.06.25.22.35.28Z"/>
      <path class="d" d="M441.44,161.05l-.14-.31c0,.1.06.21.14.31Z"/>
    </g>
    <g>
      <path class="d" d="M389.27,101.51s0,.04,0,0h0Z"/>
      <path class="d" d="M396.86,88.74s0,0,0-.01c-.15-.13-.29-.24-.39-.32l.38.34Z"/>
      <path class="d" d="M399.28,87.56s.03.01.05.02c-.1-.07-.19-.14-.05-.02Z"/>
      <path class="d" d="M395.11,94.26s0,.05.05.09c-.03-.04-.05-.07-.05-.09Z"/>
      <path class="d" d="M387.54,105.65s0-.01,0-.02c-.04-.02-.07-.03-.11-.05l.12.07Z"/>
      <path class="d" d="M387.3,105.41c.15.05.22.18.24.22.25.11.3.08.24-.04-.25-.18-.28-.07-.48-.18Z"/>
      <path class="d" d="M383.54,112.53l-.09-.09s.05.06.09.09Z"/>
      <path class="d" d="M407.45,103.06s.02.05.04.07c.02,0,0-.04-.04-.07Z"/>
      <path class="d" d="M384.53,111.7l-.39-.3c.16.13.28.22.39.3Z"/>
      <path class="d" d="M396.48,88.4l-.14-.13s.08.08.14.13Z"/>
      <path class="d" d="M400.84,85.98c.12.09.22.16.31.21,0,0,0,0,0,0l-.31-.21Z"/>
      <path class="d" d="M413.68,81.69s-.1-.07-.16-.11l.25.24s-.04-.08-.1-.13Z"/>
      <path class="d" d="M404.34,84.82s-.08-.07-.13-.11c-.16-.06-.27.03-.36.18l.48.37v-.44Z"/>
      <path class="d" d="M417.58,90.48l-1.16-.46c.16-1.16,1.43-.83,1.16-2.12l.18.19c.3.06-1.84-1.61,1.67-.78l.1.07c.01-.05-.18-.2.14-.08l-.74-.24c-.16-.3-.55-.74-.5-.95.13.05.34.18.5.29l.12-.51.72.35c-.25-.37-1.62-1.29-.65-1.07-1.01-.56-.44-.56-.93-.87.13.07.32.16.5.24.03-.27.03-.81-.37-1.25,0,0-2.48-.69-3.61-1.22.45-.08-.06-.15-.41-.33l.22.19c-.34,0-.92-.44-1.14-.48.05.03.11.07.16.11l-.07-.07c.11.07.18.12.23.18.13.09.22.17.15.19l-.05-.05c.04.13-.14.18-.22.2l-.49-.36c.84.8-1.99-.25-2.14-.11-.73-.29-.11.47-.56.44-.39.2-.83-.36-1.36-.51-.45-.03.6.38.57.48l-.85-.26c.04-.18-.3-.32-.51-.43-.23.14-1.36-.19-.44.59-.67-.07-1.06-.35-1.19-.27.21.09.42.13.62.27-.51-.2.07.13.2.16.3.48-2.41-.42-1.38.39l-.19-.14c.76.62,1.58,1.13,1.93,1.57l-.41-.18.25.37c-.32-.11-.5-.3-.6-.38.22.46-.41.41-.69.57l2.34,1.34c-.64-.17-1.92-.56-1.25,0l-.81-.42c-1.68-.63.4.72-.14.57l-.94-.38.16-.19c-.55-.1-.86-.21-1.5-.43,0,0,.01.01.02.02.04.01.08.03.13.07v.04c.38.31.57.62.44.74-.26.12.21.7-.86.4l.75.67-.66-.12-.64-.47c.21-.2.29-.82.47-1.15l-.29-.22c-.13.18,0,.59-.14.66-.17-.04-.95-.39-1.3-.81l.55.57c-.36.64-.34.67-1.52.75l.36.18c.1.26.19.52-.35.17-.38.29-1.07.38-2.06.02l.72.61c-.1.05-1.33-.68-.3.14l.21.41c-.14.06.25.45-.28.25,0,0,0,0,0,0,0,0,0,0,0,0-.03-.01-.07-.03-.11-.04.02.02.04.03.06.05-.51,0,.68.5.04.45-.6-.31.89.81.62.82l-1.19-.67c-.8-.22.26.63,0,.99-.51-.12-1.5-.72-2.24-1.44.88.89.6.55.93,1.11-.43-.27-.5-.36-.84-.67-.62-.17.29.39.16.51.74.61,1.94,1.56,1.96,1.64l.28.12c.31.45.38.75-.13.64l-.38-.29.06.33-.51-.35-.04.37.16.06c.02.11.05.43-.3.36l-.27-.21c-1.1-.31-.16.78-.35,1.22l-.53-.46c-.65-.28.84.67.45.62l-.7-.5c.81.8-.32.03-.73-.13l.94.63-.32.03c-.44-.03-1.23-.73-1.69-1.11l.62.66-.82-.56c.86.78-.22-.02.16.52-.31-.21-.46-.38-.63-.42l.93,1.11-.38-.54,1.16.88c.76.83-.3.14-.07.5l-.28-.34c.14.41-.37.06-.71-.02.24.12.61.31.7.5.02.11-.44-.27-.61-.31.77.59,1.08,1.04.61.9-.11-.08-.21-.17-.28-.23.1.13.29.29.06.21l-.84-.67.74.72c-.29-.1.26.47-.32.03l-.14-.17-.63.41-.7-.5c.91.76-.59.04.61.9-.73-.37.15.76-1.15-.29-.38.3.77,1.45-.22,1.42-1.26-.68-1.22.04-1.55.24.06.92.22,1.6.15,2.45-1.85-.82-.09,1.27-1.27.99l.56.57c-1.19-.49-.24.8-1.48.42.21.29.27.4.28.44.04,0,.18.07.59.36-.36-.11-.15.35-.94-.25l-.06-.09c-.79-.61.15.58-.63.18l.9.57-.28.08-.13-.17c1.3,2.23-1.7.59-.53,2.65-.86-.79.38.51-.65-.23-1.43-.75.01.57.24.98.05.04.11.08.18.15l-.33.19c-1.17-1.12.93.99-.06.03-1.5.02-1.22,1.69-2.29,2.21l.36.21c-.22.17-.01.73-.66.5-.65-.23.58.98.59,1.08.44.6-.82-.08-.7-.11.02.31,1.07,1.36.37,1.25-1.16-.72.55,1.51-.7.61l.1.08c-1.12-.3.13,1.11-.93.89,0,0-.09-.07-.16-.15l3.21,3.51,4.28,2.83,3.83,1.83.56-2.28,2.33-.42,2.05-3.71-.75-.93c2.12.54.87-1.7,2.56-1.56l-.79-.61c.1-.24.59.14.76.2,1.21-2.01,1.56-4.73,3.82-5.67.65.23.7-.5,1.36-.21-.58-1.27-.14-1.85.37-2.32l.07.09.04-.37c.07.04.17.11.23.16-.49-.81.55-.76,1.1-.9l.07.09c1.68-1.98,1.61-5.02,4.25-6.26,2.02,0,1.03-2.45,2.94-2.75.95.39,1.99-2.29,1.76-2.76Z"/>
      <path class="d" d="M418.92,86.4h0c.34.26.22.15,0,0Z"/>
      <path class="d" d="M406.3,84.21s.01,0,.02,0l-.52-.3.5.3Z"/>
      <path class="d" d="M408.19,81.05c-.2.05-.13.12.02.2.06-.03.06-.09-.02-.2Z"/>
      <path class="d" d="M419.08,84.85c.08-.05-.14-.17-.4-.3-.01.1-.03.17-.03.17.11.02.32.11.43.13Z"/>
      <path class="d" d="M414.29,81.75l-.26-.22c.04.09.14.16.26.22Z"/>
    </g>
    <g>
      <path class="d" d="M119.12,287.94s.05-.02,0,0h0Z"/>
      <path class="d" d="M97.4,283.15s-.01,0-.02,0c-.07.19-.13.35-.18.47l.21-.47Z"/>
      <path class="d" d="M94.32,280.95s0-.04,0-.06c-.03.12-.07.23,0,.06Z"/>
      <path class="d" d="M105.82,283.65s.06-.02.09-.08c-.03.04-.06.07-.09.08Z"/>
      <path class="d" d="M125.7,288.74s-.01,0-.02.01c0,.04,0,.07,0,.13l.02-.14Z"/>
      <path class="d" d="M125.53,289.05c-.03-.16.1-.27.14-.3,0-.29-.09-.33-.2-.23-.09.3.09.3.06.53Z"/>
      <path class="d" d="M137.33,291.23l-.07.11s.05-.07.07-.11Z"/>
      <path class="d" d="M109.71,269s.05-.03.07-.06c-.02-.02-.05.01-.07.06Z"/>
      <path class="d" d="M135.61,290.41l-.16.46c.07-.19.12-.34.16-.46Z"/>
      <path class="d" d="M97.2,283.62l-.08.18s.05-.1.08-.18Z"/>
      <path class="d" d="M91.24,279.73c.04-.14.07-.26.09-.36,0,0,0,0,0,0l-.08.37Z"/>
      <path class="d" d="M77.46,267.6c-.02.06-.03.12-.04.19l.16-.32s-.08.06-.12.13Z"/>
      <path class="d" d="M87.49,276.42c-.02.05-.04.1-.06.16.03.18.21.27.47.33l.18-.57-.59.09Z"/>
      <path class="d" d="M86.66,261.58l.13,1.3c-1.64.1-2-1.26-3.54-.7l.14-.23c-.11-.32-.97,2.26-2.09-1.53l.03-.12c-.08,0-.14.23-.2-.12l.15.81c-.3.23-.64.73-.95.73-.02-.15.03-.39.07-.58h-.75s0-.82,0-.82c-.33.35-.69,1.96-1,.91-.11,1.16-.47.58-.57,1.16.01-.14,0-.37,0-.57-.37.03-1.1.15-1.42.67,0,0,.65,2.7.66,3.97-.39-.44-.16.1-.18.49l.11-.26c.21.35,0,1.04.09,1.28.02-.06.03-.12.05-.19l-.05.09c.02-.13.05-.21.09-.27.04-.15.09-.26.15-.2l-.04.07c.15-.07.32.1.4.18l-.17.58c.53-1.04.93,2.09,1.2,2.21.07.81.69,0,.94.47.51.35.04.93.18,1.51.25.47.12-.7.28-.69l.19.93c-.27,0-.23.39-.25.62.34.21.61,1.44,1.06.31.33.7.2,1.16.4,1.28,0-.23-.1-.46-.03-.7.05.57.13-.1.08-.24.45-.41.96,2.56,1.39,1.31l-.07.23c.35-.92.5-1.88.86-2.34l.02.46.33-.34c.05.35-.09.58-.12.7.47-.34.8.33,1.19.57l.31-2.71c.18.7.47,2.09.78,1.28l-.04.93c.23,1.86.7-.57.84,0l.08,1.05-.35-.12c.22.58.27.93.37,1.63,0,0,0-.02.01-.02,0-.04,0-.09,0-.15h.06c.18-.47.46-.74.7-.63.32.24.79-.38,1.07.78l.42-.92.26.7-.22.77c-.4-.17-1.27-.1-1.82-.22l-.11.35c.32.09.78-.14.96,0,.06.18.09,1.06-.25,1.52l.41-.69c1.08.22,1.1.19,1.95,1.38l.02-.41c.28-.16.57-.32.45.32.63.32,1.17,1,1.32,2.1l.36-.88c.13.09-.06,1.52.37.27l.42-.31c.17.12.44-.36.51.22,0,0,0,0,0,0,0,0,0,0,0,0,0,.04,0,.07.01.12,0-.03.01-.05.02-.08.32.53.23-.81.58-.15-.03.69.51-1.1.69-.82l-.13,1.37c.22.87.68-.41,1.31-.23.17.55,0,1.7-.49,2.63.62-1.11.35-.74.89-1.2-.09.51-.16.6-.36,1.01.16.67.33-.38.57-.28.34-.9.85-2.34.95-2.38v-.32c.39-.42.74-.56.91-.01l-.15.46.39-.14-.15.6.51-.05-.02-.18c.13-.05.55-.15.66.22l-.1.33c.28,1.19,1.14-.01,1.84.07l-.28.65c.03.73.36-1.02.54-.6l-.23.83c.56-1.02.24.32.29.78l.24-1.1.25.32c.24.46-.19,1.43-.4,1.98l.48-.78-.23.97c.49-1.06.12.23.59-.28-.08.37-.22.55-.16.74l.89-1.2-.47.51.44-1.39c.62-.97.38.27.71-.05l-.27.37c.46-.23.31.37.42.73.01-.28.03-.69.23-.83.13-.05-.08.51-.03.69.29-.92.7-1.34.8-.83-.04.13-.08.26-.12.34.1-.13.2-.36.24-.11l-.36,1.02.49-.93c.05.32.47-.37.24.32l-.14.18.94.54-.23.83c.43-1.11.43.59.81-.84-.03.83.91-.33.33,1.24.63.32,1.44-1.12,2.02-.1-.11,1.44.81,1.23,1.29,1.53,1.18-.27,1.99-.59,3.15-.73.07,2.08,1.75-.2,2.11,1.07l.4-.7c.1,1.33,1.21.06,1.49,1.41.25-.28.36-.37.4-.38-.02-.04-.02-.2.11-.68.08.39.57.07.26,1.02l-.07.08c-.3.95.67-.29.63.6l.19-1.06.29.27-.15.17c2.13-1.84,1.86,1.6,3.84-.08-.51,1.06.44-.51.11.72-.1,1.64.74-.14,1.15-.47.02-.06.04-.13.09-.22l.46.29c-.75,1.46.73-1.18.08.06.97,1.53,3.01.85,4.37,1.82l.05-.42c.36.19.98-.16,1.08.56.11.72.93-.82,1.06-.85.52-.59.41.85.3.74.4-.09,1.13-1.41,1.42-.66-.22,1.36,1.66-.91,1.25.57l.04-.12c.3,1.21,1.39-.39,1.77.74,0,0-.04.1-.09.2l2.63-4.09,1.05-5.03v-4.33s-3.35-.04-3.35-.04l-2.03-2.29-6.21-1.23-.76.99c-.62-2.29-2.8-.5-3.68-2.26l-.3.95c-.38-.05-.18-.63-.22-.83-3.42-.77-7.25-.5-9.92-2.58-.11-.72-1.1-.6-1.14-1.34-1.32.88-2.36.57-3.31.16l.07-.09-.52.05c0-.08.03-.2.07-.27-.77.69-1.35-.38-1.89-.91l.07-.09c-3.68-1.26-7.66-.48-10.98-2.89-1.27-2.06-3.89-.49-5.49-2.36-.09-1.06-4.29-1.5-4.77-1.16Z"/>
      <path class="d" d="M80.41,261.15h.02c.12-.4.05-.26-.02,0Z"/>
      <path class="d" d="M85.46,274.56s-.02-.01-.02-.02l-.07.6.09-.58Z"/>
      <path class="d" d="M80.07,273.36c.2.2.24.1.25-.07-.08-.05-.16-.04-.25.07Z"/>
      <path class="d" d="M78.25,261.35c-.12-.07-.14.19-.14.48.14-.01.24,0,.24,0-.04-.12-.05-.35-.09-.47Z"/>
      <path class="d" d="M77.16,266.97l-.13.32c.1-.06.13-.18.13-.32Z"/>
    </g>
    <g>
      <path class="d" d="M95.68,208.15s.05,0,0,0h0Z"/>
      <path class="d" d="M79.28,198.68s-.01,0-.02,0c-.12.16-.23.29-.31.4l.33-.39Z"/>
      <path class="d" d="M77.45,195.95s0-.03.01-.05c-.07.1-.13.2-.01.05Z"/>
      <path class="d" d="M86.13,201.05s.05,0,.1-.05c-.04.03-.07.05-.1.05Z"/>
      <path class="d" d="M100.85,210.49s-.01,0-.02,0c-.01.04-.02.07-.04.12l.06-.12Z"/>
      <path class="d" d="M100.6,210.74c.03-.16.18-.22.23-.24.1-.26.05-.32-.09-.27-.18.25-.04.3-.14.5Z"/>
      <path class="d" d="M109.57,215.71l-.1.08s.06-.05.1-.08Z"/>
      <path class="d" d="M94.41,188.36s.05-.02.08-.03c-.02-.02-.05,0-.08.03Z"/>
      <path class="d" d="M108.46,214.52l-.3.39c.13-.16.22-.28.3-.39Z"/>
      <path class="d" d="M78.95,199.07l-.12.15s.07-.09.12-.15Z"/>
      <path class="d" d="M75.29,194.14c.08-.13.14-.23.19-.32h0s-.19.32-.19.32Z"/>
      <path class="d" d="M67.62,179.85c-.03.05-.06.11-.1.17l.24-.26s-.09.04-.14.1Z"/>
      <path class="d" d="M73.23,190.24s-.07.09-.1.14c-.03.17.09.3.29.41l.34-.5-.52-.05Z"/>
      <path class="d" d="M77.33,176.17l-.31,1.24c-1.42-.26-1.29-1.62-2.79-1.42l.2-.19c0-.33-1.54,1.91-1.29-1.88l.07-.1c-.07-.02-.2.19-.13-.15l-.13.8c-.33.15-.78.55-1.04.48.03-.14.15-.36.25-.53l-.64-.17.26-.76c-.39.25-1.2,1.69-1.14.64-.45,1.07-.58.44-.84.97.05-.13.12-.34.18-.53-.33-.05-.98-.09-1.41.33,0,0-.3,2.67-.69,3.87-.19-.49-.17.06-.31.43l.18-.22c.06.37-.33.98-.33,1.22.03-.05.07-.11.1-.17l-.07.07c.06-.11.11-.18.16-.24.08-.13.16-.23.19-.15l-.05.06c.15-.03.24.16.28.25l-.32.51c.78-.87.12,2.16.31,2.33-.2.78.58.15.64.64.32.44-.26.88-.33,1.45.06.49.33-.63.46-.59l-.14.91c-.22-.06-.32.31-.41.53.22.26.05,1.47.79.52.06.72-.2,1.13-.08,1.28.07-.22.07-.45.2-.66-.14.54.14-.06.15-.2.51-.29-.02,2.6.74,1.52l-.13.2c.59-.79,1.03-1.65,1.48-2l-.13.44.39-.25c-.07.34-.26.52-.33.62.51-.21.57.48.81.79l1.13-2.46c-.07.69-.29,2.06.24,1.37l-.33.86c-.41,1.79.78-.38.7.19l-.27,1-.25-.19c0,.59-.08.93-.22,1.6l.02-.02s.02-.09.05-.14h.05c.3-.38.62-.58.79-.43.19.29.79-.18.64.96l.66-.77v.71s-.45.67-.45.67c-.28-.24-1.03-.37-1.45-.6l-.21.3c.24.15.7.03.81.2-.01.18-.27,1.01-.71,1.36l.58-.56c.84.44.86.41,1.18,1.71l.15-.38c.29-.09.58-.17.27.4.42.44.65,1.19.41,2.25l.59-.74c.07.11-.56,1.4.22.34l.45-.2c.1.15.49-.24.35.32h0s0,0,0,0c0,.03-.02.07-.03.11.02-.02.03-.05.04-.07.09.56.47-.71.53,0-.25.64.79-.91.85-.61l-.57,1.24c-.11.86.7-.23,1.17.08-.04.55-.58,1.58-1.29,2.33.89-.89.54-.61,1.14-.92-.24.45-.33.52-.65.86-.09.66.4-.28.57-.14.59-.76,1.5-1.99,1.59-2l.1-.3c.48-.3.82-.35.78.2l-.28.39.37-.04-.33.52.45.07.05-.17c.13-.01.51-.01.48.35l-.2.28c-.18,1.17.96.24,1.51.48l-.46.54c-.22.69.65-.86.66-.44l-.47.72c.81-.82.09.35-.03.79l.58-.97.1.35c.04.48-.64,1.28-1.01,1.75l.67-.62-.52.85c.77-.87.02.24.59-.13-.19.32-.37.46-.39.65l1.15-.91-.57.37.84-1.18c.85-.76.22.34.61.12l-.35.28c.46-.11.13.41.1.78.11-.25.26-.63.48-.72.12-.01-.24.45-.26.63.56-.79,1.04-1.08.96-.59-.08.11-.16.22-.22.28.13-.1.3-.29.24-.05l-.65.86.72-.75c-.07.31.52-.24.09.35l-.18.14.6.72-.48.72c.74-.93.15.65.96-.59-.32.76.87-.09-.15,1.23.41.44,1.59-.7,1.72.37-.59,1.31.24,1.33.54,1.72,1.08.02,1.86-.08,2.88.07-.67,1.94,1.52.23,1.37,1.49l.58-.55c-.39,1.25.98.34.74,1.66.31-.2.43-.25.47-.26,0-.05.05-.19.33-.6-.07.38.44.2-.15,1.01l-.09.06c-.59.8.66-.1.31.7l.53-.93.14.32-.18.12c2.43-1.18.97,1.92,3.22.87-.81.86.55-.36-.17.69-.67,1.48.67.05,1.12-.15.04-.05.08-.11.15-.18l.27.38c-1.15,1.16,1.03-.9.04.07.25,1.65,2.19,1.53,2.95,2.76l.19-.37c.23.26.87.1.69.79-.18.69,1.07-.52,1.19-.52.65-.41.03.89-.03.76.36.02,1.45-1.01,1.42-.25-.68,1.19,1.71-.41.82.84l.08-.1c-.2,1.19,1.29,0,1.19,1.13,0,0-.08.08-.15.16l3.7-3.07,2.75-4.34,1.61-3.98-2.8-.92-.87-2.63-4.77-2.73-.99.72c.29-2.27-2.17-1.17-2.29-3.01l-.59.8c-.3-.14.07-.63.11-.82-2.61-1.57-5.92-2.25-7.45-4.83.16-.69-.72-.83-.5-1.52-1.42.5-2.19-.04-2.85-.64l.09-.07-.45-.08c.03-.08.1-.18.15-.23-.89.46-1.01-.67-1.28-1.29l.09-.07c-2.69-2.04-6.31-2.24-8.32-5.24-.4-2.21-3.14-1.34-3.89-3.44.27-1.01-3.16-2.36-3.68-2.14Z"/>
      <path class="d" d="M72.15,174.42h.01c.23-.35.12-.23-.01,0Z"/>
      <polygon class="d" points="72.13 188.06 72.12 188.04 71.86 188.58 72.13 188.06"/>
      <path class="d" d="M67.99,185.79c.11.22.17.14.24-.01-.05-.06-.12-.07-.24.01Z"/>
      <path class="d" d="M70.25,174.15c-.08-.09-.18.15-.27.42.12.02.2.04.2.04,0-.12.07-.34.07-.46Z"/>
      <path class="d" d="M67.57,179.2l-.21.27c.1-.03.16-.14.21-.27Z"/>
    </g>
    <g>
      <path class="d" d="M102.57,122.26s.05.01,0,0h0Z"/>
      <path class="d" d="M88.15,108.19s-.01,0-.02-.01c-.15.13-.28.25-.38.33l.4-.32Z"/>
      <path class="d" d="M86.65,105.06s.01-.03.02-.05c-.08.09-.16.18-.02.05Z"/>
      <path class="d" d="M94.71,112.22s.05.01.11-.02c-.04.02-.08.03-.11.02Z"/>
      <path class="d" d="M106.94,126.48s-.01,0-.02,0c-.03.03-.05.06-.08.1l.1-.1Z"/>
      <path class="d" d="M106.62,126.62c.08-.14.24-.14.3-.14.18-.22.15-.3,0-.29-.25.18-.13.27-.3.43Z"/>
      <path class="d" d="M113.47,135.29l-.12.03s.08-.02.12-.03Z"/>
      <path class="d" d="M105.6,101.68s.06,0,.09-.01c-.01-.03-.05-.01-.09.01Z"/>
      <path class="d" d="M112.87,133.64l-.43.23c.18-.09.32-.16.43-.23Z"/>
      <path class="d" d="M87.76,108.51l-.15.12s.09-.07.15-.12Z"/>
      <path class="d" d="M84.62,102.83c.1-.11.17-.21.23-.29h0s-.23.29-.23.29Z"/>
      <path class="d" d="M77.08,87.11c-.03.05-.07.11-.1.16l.25-.25s-.1.04-.15.09Z"/>
      <path class="d" d="M82.83,98.52s-.08.08-.12.12c-.05.17.07.32.27.46l.39-.45-.55-.13Z"/>
      <path class="d" d="M87.76,84.53l-.35,1.26c-1.57-.53-1.45-1.92-3.11-1.94l.21-.17c0-.34-1.66,1.79-1.5-2.17l.07-.1c-.07-.03-.21.17-.15-.18l-.12.82c-.36.12-.85.48-1.15.38.02-.15.15-.36.25-.52l-.72-.25.26-.77c-.43.22-1.27,1.64-1.25.54-.46,1.07-.63.4-.9.92.05-.13.12-.35.18-.54-.37-.09-1.09-.2-1.55.2,0,0-.21,2.78-.61,3.99-.22-.53-.18.04-.32.42l.19-.22c.08.39-.33.99-.33,1.23.03-.05.07-.11.11-.17l-.07.07c.06-.11.12-.18.17-.23.08-.13.16-.22.2-.14l-.06.05c.16-.02.26.19.31.28l-.34.5c.83-.82.17,2.23.36,2.43-.22.79.62.22.68.74.34.49-.29.88-.37,1.46.06.51.36-.61.49-.56l-.16.92c-.24-.08-.35.29-.45.5.23.29.02,1.51.83.61.04.75-.25,1.13-.12,1.3.08-.22.09-.46.23-.65-.16.54.15-.05.16-.19.56-.25-.13,2.68.72,1.66l-.15.19c.65-.74,1.15-1.56,1.65-1.87l-.16.43.42-.21c-.09.34-.3.5-.38.6.55-.15.58.57.82.92l1.32-2.37c-.1.7-.4,2.07.2,1.44l-.4.83c-.55,1.78.84-.27.73.31l-.35.98-.25-.23c-.05.61-.15.94-.34,1.61l.02-.02s.03-.09.07-.13h.05c.34-.34.69-.48.86-.31.18.32.85-.06.6,1.09l.75-.68-.07.72-.52.61c-.28-.29-1.06-.54-1.48-.84l-.24.28c.23.19.73.14.83.33-.03.19-.37.98-.86,1.28l.65-.48c.84.57.86.57,1.06,1.94l.2-.36c.31-.04.62-.07.24.45.39.52.54,1.33.17,2.35l.7-.64c.07.13-.74,1.31.19.38l.49-.11c.08.18.53-.14.31.4h0s0,0,0,0c-.01.03-.03.07-.05.11.02-.02.04-.04.05-.06.02.59.57-.62.55.1-.34.59.94-.76.96-.45l-.75,1.15c-.23.85.75-.09,1.2.32-.12.55-.82,1.47-1.66,2.09,1.05-.72.64-.5,1.31-.7-.31.4-.42.46-.79.74-.19.64.46-.2.6-.02.71-.64,1.83-1.69,1.93-1.68l.14-.28c.53-.19.9-.17.77.38l-.35.34.39.04-.42.45.45.17.07-.16c.13.01.52.1.43.47l-.25.24c-.37,1.14.95.46,1.48.85l-.56.43c-.35.64.81-.71.74-.28l-.61.61c.97-.62.03.38-.17.79l.76-.84.03.38c-.04.5-.89,1.13-1.35,1.51l.79-.45-.69.72c.95-.68-.02.24.62.02-.26.28-.46.37-.51.55l1.34-.63-.65.22,1.08-.97c1.01-.54.16.4.6.27l-.42.19c.49,0,.06.44-.05.8.16-.23.39-.57.62-.6.13.02-.34.39-.39.57.72-.64,1.28-.81,1.09-.34-.1.09-.2.18-.28.23.15-.06.36-.21.25.02l-.83.69.88-.55c-.13.29.57-.09.02.38l-.21.09.45.89-.63.59c.94-.72.01.69,1.09-.32-.48.67.9.15-.42,1.18.32.55,1.77-.26,1.65.87-.9,1.13-.07,1.4.13,1.87,1.07.35,1.89.47,2.85.97-1.17,1.7,1.45.73.98,1.93l.73-.35c-.72,1.09.89.68.27,1.9.36-.09.49-.1.54-.09.01-.04.11-.17.5-.48-.18.35.38.36-.43.94l-.11.03c-.81.58.68.13.1.8l.79-.72.05.37-.22.05c2.76-.28.38,2.23,2.89,2.05-1.05.53.65-.14-.38.61-1.12,1.19.64.3,1.15.29.05-.04.11-.07.2-.12l.15.48c-1.49.67,1.3-.47.02.09-.3,1.71,1.61,2.38,1.93,3.9l.32-.28c.12.35.79.48.38,1.06-.41.58,1.21-.04,1.32.02.77-.11-.29.87-.3.72.34.17,1.76-.32,1.46.39-1.08.82,1.78.39.47,1.19l.11-.06c-.64,1.05,1.22.6.69,1.64,0,0-.11.04-.2.08,1.56-.4,3.13-.79,4.71-1.16l4.29-2.83,3.02-3.1c-.82-.81-1.61-1.62-2.45-2.4v-3.11c-1.31-1.73-2.65-3.43-4.02-5.1l-1.21.28c.92-2.2-1.89-2.18-1.55-4.11l-.82.57c-.28-.27.23-.62.32-.8-2.3-2.77-5.65-4.73-6.77-7.98.3-.67-.62-1.12-.26-1.76-1.61.03-2.33-.8-2.94-1.66l.11-.04-.48-.23c.05-.07.13-.15.2-.19-1.03.2-.99-1.03-1.2-1.77l.11-.05c-2.63-3.03-6.55-4.22-8.53-7.86-.15-1.21-1-1.76-1.89-2.29-.9-.53-1.86-1.02-2.24-2.22.35-1.04-3.5-3.11-4.08-2.96Z"/>
      <path class="d" d="M81.92,81.91h.02c.24-.34.13-.22-.02,0Z"/>
      <polygon class="d" points="81.8 96.11 81.79 96.09 81.5 96.61 81.8 96.11"/>
      <path class="d" d="M77.5,93.28c.11.24.18.17.25.01-.05-.07-.13-.09-.25-.01Z"/>
      <path class="d" d="M79.78,81.41c-.09-.1-.19.13-.28.41.14.03.23.07.23.07,0-.12.06-.35.05-.47Z"/>
      <path class="d" d="M77.01,86.42l-.22.26c.11-.03.18-.13.22-.26Z"/>
    </g>
  </g>
</svg>